<svg xmlns="http://www.w3.org/2000/svg" xmlns:xlink="http://www.w3.org/1999/xlink" version="1.1" id="Layer_1" x="0px" y="0px" width="100%" viewBox="0 0 1024 1024" enable-background="new 0 0 1024 1024" xml:space="preserve">
<path fill="#000000" opacity="1.000000" stroke="none" d=" M95.801041,456.088043   C98.249779,436.302307 101.567444,417.149506 106.500862,398.267395   C120.179161,345.915253 142.922607,297.902954 175.111511,254.414032   C210.492706,206.612167 254.029968,167.910187 305.662170,138.403397   C346.363098,115.143623 389.871796,99.533279 435.910858,90.672096   C470.308533,84.051521 505.044342,81.715332 539.827698,84.132149   C633.079041,90.611458 716.037964,123.379921 787.310730,184.355240   C851.328857,239.124054 894.991943,307.162628 918.653748,388.005341   C925.634216,411.854614 929.806580,436.225952 932.524170,460.938995   C935.100586,484.368591 935.670410,507.803772 934.145325,531.236267   C931.581848,570.623352 923.955566,609.057739 910.585693,646.284668   C887.813965,709.689636 851.830872,764.518066 802.913086,810.698608   C753.089050,857.734863 695.056091,890.533264 629.097839,909.426086   C584.622681,922.165405 539.310669,927.017273 493.229767,924.984619   C461.702301,923.593811 430.776886,918.284607 400.315247,909.875061   C354.897614,897.336548 312.831696,877.659729 274.244965,850.815552   C223.326523,815.392456 182.041016,770.860962 150.528580,717.329529   C129.500565,681.608398 114.252075,643.547974 104.555687,603.317444   C98.148224,576.732849 94.687286,549.716370 93.464684,522.328369   C92.614815,503.290039 93.626472,484.394989 94.751556,465.456268   C94.928741,462.473724 95.413231,459.509430 95.801041,456.088043  M125.142998,424.513397   C120.718346,444.903870 118.251350,465.583710 117.453812,486.379272   C116.180122,519.590210 118.402397,552.608887 125.275940,585.211670   C135.630173,634.324097 154.258942,680.103760 181.963501,721.934326   C217.422165,775.472778 263.023956,818.339966 319.033356,850.077820   C379.370361,884.267883 444.362122,900.859253 513.441589,901.412598   C540.590515,901.630066 567.564026,898.681458 594.265015,893.123352   C647.363831,882.070190 696.301331,861.331970 740.599121,830.193481   C798.042297,789.814636 842.168518,737.969116 872.474487,674.422119   C895.293579,626.574036 907.647827,576.111328 910.469910,523.368835   C912.427856,486.777344 908.878906,450.496155 900.555786,414.777313   C887.079346,356.942810 862.196167,304.475128 825.054810,258.105621   C771.687195,191.478317 703.979431,146.062256 621.789307,122.551949   C574.671387,109.073967 526.648682,105.024323 477.880402,109.260750   C446.724579,111.967209 416.300720,118.325508 386.733521,128.436813   C311.557068,154.145432 249.358658,198.408798 200.448181,260.912170   C162.683823,309.171783 137.812469,363.640106 125.142998,424.513397  z"/>
<path fill="#000000" opacity="1.000000" stroke="none" d=" M234.785034,768.201599   C194.987183,725.466797 166.016281,676.734924 148.278107,621.437195   C139.295914,593.435669 133.796906,564.767395 131.438110,535.392029   C129.926743,516.570129 129.429764,497.823151 130.742203,479.024994   C134.031677,431.909729 144.861145,386.680756 164.501251,343.604797   C185.291412,298.006561 213.814301,257.946808 250.096207,223.449097   C284.003723,191.209015 322.533661,165.966324 365.683289,147.750824   C399.047333,133.666290 433.697693,124.232933 469.600616,120.129761   C512.891724,115.182228 555.976746,116.751472 598.712097,126.346443   C667.954224,141.892746 728.520691,173.594559 780.256592,222.191101   C826.815369,265.924683 860.554749,317.922516 881.247620,378.374115   C890.390442,405.083435 896.204712,432.492279 899.481079,460.533569   C904.654236,504.808899 901.701538,548.492371 891.662109,591.859070   C877.283020,653.971619 848.893188,708.843323 807.146423,756.884521   C771.569397,797.825623 729.181213,829.855835 680.133057,852.960327   C647.716553,868.230469 613.727844,878.490356 578.345642,884.367798   C538.220398,891.033264 498.057068,891.237122 457.953857,885.147705   C398.369995,876.100159 343.747650,854.317383 294.306763,819.686829   C272.794159,804.618408 253.188965,787.385803 234.785034,768.201599  M637.657776,253.194595   C635.382446,254.577362 633.064941,255.895721 630.839783,257.354980   C624.314392,261.634338 623.309448,261.519348 618.595398,255.668091   C615.834961,255.860352 613.876953,258.324890 611.307312,258.640930   C606.011658,259.292236 609.651123,254.350937 607.872375,252.556335   C603.103699,251.012405 596.800110,260.885559 593.249084,250.726349   C590.849304,250.698944 588.967407,251.807816 587.002258,252.702286   C580.868896,255.494019 579.586365,254.876633 578.291443,248.557678   C576.175842,248.077026 574.406494,249.171844 572.600403,249.937057   C567.673157,252.024673 562.544006,253.474609 557.369995,254.742416   C554.744995,255.385620 551.581177,255.774109 550.268188,252.855148   C548.645569,249.247635 546.456604,250.379364 544.185608,251.396271   C537.955566,254.185883 531.749573,257.034058 525.598694,259.993286   C521.982300,261.733124 518.573975,261.826385 515.207886,259.512634   C501.440002,250.048950 485.685364,247.854111 469.561340,247.197311   C462.813721,246.922470 461.580811,248.342392 462.685211,255.189774   C464.252716,264.908569 466.683777,274.408630 470.965668,283.357819   C474.347687,290.426331 474.018768,291.680481 467.623169,296.114716   C456.105713,304.100067 444.930237,312.519318 435.139313,322.594421   C413.378235,344.987061 395.028931,370.207672 375.851593,394.728180   C371.598694,400.166016 367.827026,406.139343 366.038757,413.225403   C370.655518,414.683441 370.561615,417.571716 369.003815,421.181396   C364.781006,430.966583 360.472870,440.724030 356.601837,450.649780   C351.167328,464.584381 346.014984,478.636292 343.254730,493.804626   C348.558044,494.553070 349.276550,497.792175 348.477692,502.194122   C346.784088,511.526581 345.139313,520.875488 343.831421,530.267334   C343.140747,535.226868 342.260254,540.267212 342.723816,545.323853   C349.078217,545.278442 349.699707,546.063904 350.343750,551.755066   C351.361053,560.744690 350.599457,569.997864 353.992615,579.099304   C358.095734,575.448792 359.356750,577.937805 360.039459,581.469604   C361.887817,591.031738 365.496674,599.944458 369.919586,608.566406   C370.726715,610.139771 372.113342,611.572266 371.082520,614.487671   C357.549255,614.694580 345.328094,619.530579 334.774506,628.720947   C339.826599,632.830933 339.754517,633.911194 334.464081,637.443237   C334.186951,637.628235 333.882263,637.777039 333.624084,637.984619   C318.943970,649.787781 305.378693,662.496704 299.508240,681.219666   C298.237427,685.272766 295.685913,689.654297 301.030426,693.065979   C301.789124,693.550232 301.996796,695.159729 302.144867,696.289673   C302.598785,699.753845 302.881500,703.240051 303.263306,706.714111   C304.386627,716.935059 306.318359,726.995056 308.908417,737.226868   C312.046295,736.471680 314.820892,736.377563 316.393524,739.138733   C320.255798,745.920166 326.863312,749.783752 332.693878,754.372375   C336.867462,757.656921 341.463379,760.773315 347.400299,761.304138   C347.707367,759.024963 347.824707,757.202637 348.219727,755.442566   C348.831451,752.716858 350.418701,750.947632 353.457794,751.141724   C360.264618,751.576355 367.065643,752.105530 373.874725,752.497437   C376.101440,752.625549 378.487213,753.291687 380.498657,751.505737   C379.605255,748.623718 375.103302,747.106384 377.456665,743.228271   C379.139862,740.454529 383.187653,740.637207 385.018799,737.412231   C378.873627,731.964355 373.021423,726.354980 367.774597,720.063049   C351.625092,700.696716 359.215210,678.481384 375.862610,666.585938   C379.451721,664.021362 382.496674,663.673035 384.406525,668.590271   C385.861298,667.902893 387.164459,667.495300 388.233276,666.751160   C407.226990,653.527649 428.756989,647.823181 451.377747,645.196289   C458.022552,644.424744 459.652191,645.323547 460.318787,651.955322   C498.878723,648.582886 537.747620,649.781433 576.254761,643.761658   C576.888367,647.614868 573.186707,649.824280 573.259216,653.146545   C592.439636,649.509338 606.998291,639.107056 618.477173,623.969666   C622.809814,618.256042 622.812805,618.258301 628.139954,623.499084   C636.535400,614.407349 639.153870,603.622131 636.906921,591.271606   C641.822815,592.493164 642.465881,597.182434 646.628540,597.973816   C646.839783,587.255493 640.369812,578.748962 637.952026,568.768372   C643.193542,568.510193 645.108032,573.821350 650.012146,574.029663   C647.398682,560.639709 637.638977,551.575562 631.282043,540.113281   C638.427673,538.423462 643.263611,543.432922 650.059143,544.101868   C642.942688,529.953796 634.557312,517.726746 623.581055,507.905243   C624.591064,505.266602 627.129761,506.176697 628.069519,503.824829   C621.886780,498.651093 615.704956,493.199402 608.520569,488.989868   C605.401550,487.162384 601.895691,485.546112 602.931274,480.632141   C596.582397,480.223053 590.638123,479.789673 584.687744,479.469482   C577.426636,479.078766 577.424438,479.119873 579.697021,472.145050   C567.572449,474.698059 555.610413,476.377106 544.540649,481.804108   C539.477173,484.286469 534.065552,486.069519 528.772949,488.066803   C527.261780,488.637085 525.350830,489.453827 524.209656,487.687317   C522.947388,485.733368 524.493042,484.216614 525.797180,482.935486   C528.909607,479.877899 532.429565,477.389099 536.424988,475.577850   C548.757080,469.987183 561.458862,465.439392 574.809814,463.102661   C581.846130,461.871185 588.765686,459.737762 595.997253,459.758667   C597.943054,459.764282 600.400085,459.208191 601.450073,461.295349   C602.650330,463.681061 599.963745,464.621033 598.825500,466.099854   C597.459839,467.874084 594.921082,468.779694 594.764038,471.478302   C596.379028,473.345337 598.523438,472.571747 600.429321,472.786407   C605.874756,473.399628 611.333008,473.908234 616.768311,474.598572   C619.338623,474.924988 621.271545,476.470215 619.287903,478.947845   C616.458191,482.482269 618.385681,484.290009 621.007446,486.189850   C629.367493,492.247925 637.680725,498.365906 645.337158,505.316528   C647.115601,506.930969 650.140503,507.926331 649.614380,510.930450   C649.074768,514.011841 645.741455,512.776123 643.827820,513.830139   C643.551208,513.982544 643.355896,514.282349 642.435181,515.197754   C646.934631,523.324097 652.730896,530.954529 657.214600,539.385437   C658.386719,536.271484 657.885132,533.463867 657.499268,530.684204   C656.530212,523.705322 656.723877,523.381775 663.567688,522.526917   C663.670593,521.928894 663.943787,521.267578 663.867004,520.649719   C662.350891,508.439362 661.268860,496.144104 657.114441,484.427155   C656.400574,482.413727 654.807373,479.914917 657.226501,478.572845   C660.764343,476.610138 659.568665,474.269043 658.562683,471.837524   C657.353821,468.916077 656.076355,465.997650 654.530640,463.245239   C647.219849,450.226593 641.919617,435.975616 631.201965,425.030884   C629.974609,423.777466 629.043518,422.068604 630.265015,420.538055   C632.433167,417.821350 630.848694,415.958588 629.303589,413.935730   C619.381714,400.945984 606.466003,391.681702 592.120361,384.262512   C586.676636,381.447174 586.365967,380.872314 589.768677,375.931641   C587.083984,373.415802 583.821472,371.741730 580.664551,369.936951   C569.232483,363.401306 557.404907,357.641296 545.481567,352.067719   C543.921509,351.338501 541.572815,350.800140 542.281982,348.359619   C542.866089,346.349731 544.940796,345.922607 546.810303,345.931152   C549.501709,345.943451 552.112427,346.680695 554.527405,347.799774   C571.755188,355.783081 588.924194,363.891785 604.946411,374.176208   C610.803589,377.935822 610.960754,379.047089 606.828247,384.287476   C606.992920,384.570465 607.087769,384.957397 607.332275,385.121552   C618.414490,392.561920 628.909363,400.752350 638.693787,409.831573   C640.868835,411.849823 642.315186,410.710632 643.650146,409.036102   C646.556213,405.391052 649.249207,401.571594 652.244385,398.003998   C653.865112,396.073547 654.855408,392.774078 658.131836,393.321747   C661.648560,393.909576 659.156006,397.717560 660.733643,399.501221   C662.206116,399.306274 662.632629,398.083618 663.144104,397.133118   C665.588013,392.592255 668.235779,388.152222 669.885925,383.212463   C670.427429,381.591522 670.630615,378.983307 672.965088,379.321808   C675.548340,379.696411 674.456848,382.107178 674.451111,383.846466   C674.447083,385.060730 673.801514,386.453766 675.118774,387.588776   C679.679199,383.495270 681.402222,377.805359 684.029358,372.664825   C686.148193,368.518921 686.171692,368.495667 690.474243,370.370239   C695.813660,361.504852 694.324402,351.288269 695.232483,341.910645   C697.941406,341.415253 697.960632,343.936188 699.889954,343.986206   C699.083557,332.973541 695.754517,322.989502 690.374573,313.411530   C676.770813,322.892822 670.218933,323.370605 659.070618,316.238495   C656.216797,314.412811 653.965881,311.961334 651.825989,309.412842   C650.616455,307.972321 649.478638,306.564819 647.460205,306.391968   C644.171509,306.110382 642.673645,304.347687 643.022400,301.071808   C643.364197,297.860870 645.691833,297.045227 648.365295,296.981049   C656.357239,296.789154 664.349792,296.621185 672.336914,297.280670   C676.497437,297.624176 680.729431,298.408691 685.517517,296.609039   C680.804382,290.592255 675.192993,286.675720 670.059021,282.289276   C667.709900,280.282166 667.561646,278.871338 669.859070,276.695984   C678.843445,268.189148 686.009399,258.097900 693.916748,248.652359   C694.953918,247.413406 696.246521,246.205612 695.701599,243.436768   C675.983948,242.573578 656.422485,242.859207 637.657776,253.194595  M409.306549,733.696045   C408.778320,739.774536 408.464813,745.879456 406.767639,751.970459   C409.426117,752.928162 411.761322,752.940125 413.760986,752.048889   C414.922150,737.278931 416.056122,722.855042 417.228180,707.946655   C421.222961,708.969055 423.049469,711.510437 425.264099,713.367371   C427.740509,715.443726 429.743164,715.562561 432.197205,713.278198   C434.324188,711.298279 436.307709,708.900146 439.469727,708.347595   C440.984863,710.061768 441.058380,712.097900 441.111481,714.053833   C441.427216,725.686401 443.739868,737.196594 443.286743,748.865356   C443.173340,751.786560 444.368164,752.739136 447.093719,752.598450   C449.848816,752.456299 450.299042,750.982971 450.002350,748.577454   C448.188751,733.874023 447.340912,719.096191 446.760925,704.300537   C446.692810,702.562927 446.519806,700.719482 444.391602,700.491943   C440.985474,700.127869 437.734314,699.589050 434.798065,702.790405   C429.020081,709.090210 428.813721,708.903076 422.824951,702.762634   C422.360687,702.286621 422.003265,701.668091 421.467377,701.306885   C418.734802,699.465393 415.627716,699.822266 412.831482,700.651611   C410.332794,701.392639 411.483856,704.062378 411.337036,705.921204   C410.630066,714.871399 410.002350,723.827881 409.306549,733.696045  M514.922852,743.454590   C522.158997,737.074341 527.361267,729.420227 528.195862,719.623352   C529.190308,707.948975 524.464600,698.879456 511.173004,699.298462   C508.012390,699.398071 504.843384,699.412170 501.683594,699.306274   C498.542206,699.200989 497.163513,700.472412 497.182678,703.715759   C497.269135,718.367737 497.245117,733.020386 497.223999,747.672791   C497.218414,751.546265 499.148468,752.308899 502.389771,751.032837   C506.766449,749.309753 510.619141,746.687744 514.922852,743.454590  M611.115295,752.607971   C613.373657,752.570312 613.112732,751.094238 613.100403,749.482544   C612.992188,735.351868 612.954285,721.220520 612.920593,707.089417   C612.903137,699.765442 610.988403,698.538818 604.449768,701.897888   C594.573303,706.971802 589.735229,715.839478 586.311096,725.876648   C583.392883,734.431030 584.965271,743.305176 583.816223,751.954529   C590.359070,753.200012 590.760864,752.860291 590.663147,746.341003   C590.515808,736.514343 590.520630,736.742737 600.327454,736.538696   C605.102844,736.439331 607.151733,737.899170 606.449707,742.778931   C606.191589,744.572815 606.474854,746.437805 606.346375,748.258728   C606.138123,751.209167 607.447388,752.625977 611.115295,752.607971  M476.127441,702.519043   C473.660919,703.927307 471.356628,705.552124 469.380798,707.609192   C458.029480,719.427429 456.727997,734.177185 457.238464,749.431885   C457.312042,751.631042 459.001678,752.010010 460.808502,751.968140   C462.903412,751.919678 463.085052,750.488831 463.057983,748.853516   C463.011139,746.028015 463.019958,743.201416 463.016510,740.375305   C463.012970,737.496704 464.513397,736.098145 467.338531,736.104126   C470.163177,736.110107 472.990814,736.106812 475.811218,736.236450   C478.228973,736.347534 479.331818,737.747070 479.294220,740.165039   C479.245117,743.323914 479.260315,746.484131 479.283203,749.643555   C479.298492,751.757141 480.564331,752.521851 482.511261,752.570374   C484.510406,752.620056 485.668091,751.866394 485.664459,749.698242   C485.638824,734.398132 485.628174,719.097961 485.625458,703.797852   C485.624847,700.453674 483.614380,699.890259 480.954590,700.528992   C479.519043,700.873657 478.180908,701.623962 476.127441,702.519043  M558.601440,742.908691   C564.166138,747.084778 569.728760,751.265076 577.064514,752.387512   C578.776672,748.159668 577.953491,745.850098 573.614868,744.223450   C563.491821,740.428284 556.653748,733.206543 553.864746,722.650269   C550.816833,711.113953 558.436279,703.229675 568.337463,706.233276   C570.159851,706.786133 571.688171,706.655212 572.006348,704.298767   C572.261658,702.408264 572.365967,700.886658 569.905518,700.012573   C560.852539,696.796692 550.295532,701.462952 547.594238,710.642578   C543.814209,723.488037 549.098816,733.642517 558.601440,742.908691  M637.965271,736.478760   C637.955933,728.330505 638.082092,720.178894 637.882751,712.035278   C637.775635,707.664612 639.268616,705.521179 643.888245,705.659912   C646.984802,705.752930 649.675903,704.748230 650.283569,700.241699   C640.572693,700.241699 631.317871,700.199951 622.063904,700.273315   C619.956177,700.290039 619.271362,701.782654 619.443420,703.721436   C619.619507,705.705566 620.890503,706.136047 622.607910,705.923279   C622.937317,705.882507 623.271423,705.870605 623.603638,705.864319   C632.121155,705.705078 632.124451,705.705505 632.126526,714.327820   C632.129639,726.769958 632.127380,739.212036 632.127380,751.699341   C637.769714,753.562134 638.571594,752.944153 638.138794,747.434631   C637.879028,744.128113 638.008789,740.791016 637.965271,736.478760  M436.872345,776.224548   C428.458313,773.749939 427.299072,774.529724 427.276276,782.689087   C427.268860,785.344788 427.141449,788.008789 427.309387,790.653748   C427.467194,793.138916 426.454132,795.855164 428.598511,798.595825   C431.017731,794.245972 428.213501,789.395813 430.887238,785.255859   C435.714874,788.477051 434.148163,795.300842 438.901825,798.218506   C438.320709,794.384277 437.180939,790.820862 435.846863,787.331787   C434.961029,785.015015 434.305878,783.032166 436.954010,781.279602   C438.663696,780.148132 439.206940,778.407288 436.872345,776.224548  M663.755005,307.292480   C661.400513,307.101837 658.962769,306.400299 656.760254,308.149536   C666.086731,319.515686 680.514221,318.501526 687.260864,307.106659   C683.044556,306.368683 679.035889,305.022583 675.588318,308.601440   C670.596252,313.783478 670.641968,313.819244 665.700806,308.400146   C665.374207,308.041992 664.904053,307.814728 663.755005,307.292480  M591.716431,783.840515   C591.900818,782.392334 591.658691,780.770691 593.609802,779.749573   C596.370483,782.663086 599.292236,780.786499 602.566101,778.999268   C604.117004,785.663147 603.130249,792.365540 606.234619,798.120300   C606.636353,791.695740 606.232361,785.432983 605.734314,779.177734   C605.408142,775.081421 603.798218,774.192200 600.346619,776.576294   C598.196838,778.061157 596.736206,778.285583 594.681763,776.505981   C592.936218,774.994019 589.854126,774.203308 589.753906,777.374390   C589.532654,784.377075 588.239502,791.342712 589.060974,798.473389   C591.602905,794.171326 590.903381,789.268433 591.716431,783.840515  M613.255859,792.312561   C613.356934,799.027100 617.917786,801.093750 624.385254,797.233154   C622.054382,795.276611 618.346863,797.688416 616.616516,795.076965   C614.892517,792.475037 615.632263,789.205933 615.866272,786.281372   C616.447510,779.016907 622.748352,783.552979 625.947998,781.702942   C626.697754,780.137756 625.496826,779.124939 625.004028,777.959106   C623.042725,773.319092 618.977600,775.530212 615.822021,775.449768   C612.545776,775.366211 613.295959,778.339478 613.246765,780.362671   C613.157776,784.025574 613.236877,787.692566 613.255859,792.312561  M464.114197,782.269958   C463.286102,781.251831 462.444336,780.244507 461.633392,779.212952   C460.640442,777.949646 459.933716,775.970947 457.886353,776.634277   C455.876343,777.285522 456.297241,779.314514 456.278442,780.920593   C456.227936,785.233521 456.175140,789.549316 456.289093,793.859619   C456.326385,795.270325 455.734924,797.163940 458.097748,798.110413   C459.829620,792.912903 457.380707,787.450317 459.758789,782.252380   C466.702301,786.506409 465.963928,793.697266 468.331268,799.574524   C468.331268,792.140564 468.331268,784.706543 468.331268,777.018127   C465.573853,778.350281 467.575623,781.778076 464.114197,782.269958  M571.033081,783.733887   C568.869568,788.472900 568.657715,793.390869 569.235046,798.748352   C573.591980,797.552368 568.847107,791.278015 574.450317,791.121582   C579.775452,790.972778 578.005127,796.205017 581.121216,799.146729   C581.982849,790.663879 581.900208,783.206116 581.188843,775.437073   C575.898376,776.160217 573.623108,779.614441 571.033081,783.733887  M412.409149,775.303955   C410.421875,775.527466 407.524323,774.537415 407.415741,777.803955   C407.194275,784.466675 407.349396,791.141846 407.349396,797.941895   C414.933441,796.429016 420.531097,790.260925 420.844940,783.833130   C421.127533,778.045410 419.121948,775.795471 412.409149,775.303955  M479.837860,778.606262   C478.423065,778.461975 478.846771,776.030457 476.686707,776.374329   C476.039307,783.619995 476.131714,790.848022 477.219696,798.107544   C479.922485,795.510986 477.616974,791.671570 479.859589,789.093811   C484.288269,790.812256 482.925903,797.101013 488.938904,799.226868   C487.320679,795.603333 486.432953,793.164978 485.189484,790.924011   C482.509644,786.094482 480.193359,781.392029 485.783264,776.942932   C485.864746,776.878052 485.609406,776.389954 485.487518,776.029175   C483.091064,775.499390 482.438782,778.401611 479.837860,778.606262  M559.583435,787.012207   C558.907654,789.074768 560.714294,791.724792 558.178162,793.369629   C553.500610,791.081116 550.067444,785.898193 550.773682,782.072266   C551.613831,777.520630 555.329102,777.163208 559.685181,777.052429   C552.896790,773.830078 548.079956,776.559631 548.044495,782.851562   C548.004028,790.020508 554.035706,796.866272 561.696716,797.877136   C561.929138,792.595459 562.411743,787.382812 561.421204,781.607361   C559.240112,783.336121 560.314880,785.041748 559.583435,787.012207  M523.722839,797.889038   C527.295959,799.289734 530.927612,799.241028 533.131226,795.945251   C534.650452,793.673157 534.859131,790.557617 532.597839,787.869019   C530.590881,789.757629 531.775085,791.963501 531.142944,793.766052   C529.866943,797.404480 524.700073,797.350647 523.054504,793.643921   C521.007629,789.033325 525.056885,786.910095 527.242798,784.319763   C526.630859,782.093262 523.446106,781.972473 524.072754,779.325806   C524.714600,776.614685 527.534180,778.241272 528.962769,776.956055   C525.482422,774.988831 521.320740,776.170532 521.993713,779.025146   C523.156067,783.955566 520.079712,787.704529 520.125122,792.112122   C520.149048,794.436035 521.004639,796.301392 523.722839,797.889038  M502.833710,788.056335   C504.405884,790.279419 504.995483,792.619202 503.061981,794.869019   C501.390045,796.814453 499.256561,796.495483 497.147156,795.549683   C496.090698,795.076050 494.843628,794.299561 494.237732,795.925476   C493.526123,797.834961 495.333252,798.196777 496.461121,798.469360   C499.598999,799.227783 502.882111,799.420776 505.301086,796.846436   C507.743561,794.247009 507.302704,791.026489 506.140839,787.970825   C505.297211,785.751953 503.513794,784.197449 501.800476,782.619324   C499.611664,780.603088 497.381256,778.537415 501.754883,776.206970   C499.440582,774.902466 497.728607,775.035461 496.664703,776.970520   C495.724335,778.680908 495.913940,780.607361 497.178650,782.105957   C498.774658,783.997070 500.607697,785.688171 502.833710,788.056335  M638.804932,782.625732   C637.676147,781.335144 635.534973,780.667053 635.972290,778.886230   C636.817810,776.480530 639.664124,778.564514 640.093567,775.824707   C637.863464,775.074829 635.460693,774.376770 633.879517,776.598572   C632.221985,778.927795 633.183472,781.371582 635.044495,783.364807   C636.739929,785.180786 638.678711,786.804321 640.159546,788.776123   C641.668884,790.785828 641.839233,793.149902 640.035828,795.193481   C638.433777,797.009033 636.447266,797.444397 634.194763,796.325562   C633.234192,795.848450 632.244751,794.811340 630.724365,796.807983   C634.081116,799.535706 637.663452,799.529846 641.109375,797.684021   C644.276062,795.987793 645.017700,792.941101 643.928772,789.507080   C643.094360,786.875488 641.366150,784.892212 638.804932,782.625732  M448.929260,786.537598   C448.733490,783.199463 449.497498,779.756958 448.162415,776.005432   C445.726288,780.406067 445.702423,794.519226 448.126862,798.388733   C449.634888,794.577881 448.654785,790.972107 448.929260,786.537598  z"/>
<path fill="#000000" opacity="1.000000" stroke="none" d=" M625.527710,345.163788   C627.380737,344.730560 628.858398,344.464813 630.307617,344.089111   C633.094971,343.366516 637.177734,344.622803 638.315491,341.312500   C639.760681,337.107483 639.543823,332.403442 638.609436,327.984467   C638.107788,325.611786 635.562134,325.659058 633.637085,325.451935   C630.269653,325.089508 627.010437,324.388397 624.234802,322.420685   C620.678711,319.899750 620.736877,315.931732 624.717712,314.787048   C633.831604,312.166260 643.143250,310.011963 652.449585,314.443085   C654.700012,315.514618 656.607300,316.967102 656.695496,319.524139   C656.796814,322.460907 654.298828,323.388672 652.004395,323.860962   C647.876465,324.710754 647.000427,327.117615 647.150391,331.070740   C647.580017,342.396362 647.405579,342.425903 658.274414,344.814178   C664.712830,346.228943 669.855469,349.607910 674.104980,354.606934   C675.861389,356.673248 677.809387,359.669891 681.102722,357.601013   C684.464478,355.489166 684.268188,352.029602 683.035522,348.676361   C682.521790,347.279053 681.713379,345.990387 681.043274,344.650177   C680.362793,343.289368 679.540771,341.806061 680.937012,340.535248   C682.348694,339.250427 683.797791,340.348724 685.056641,341.045807   C691.872314,344.819916 693.854675,355.147491 689.160400,362.158722   C685.013916,368.351776 677.558472,368.952789 670.826355,363.626404   C670.305603,363.214355 669.744141,362.802185 669.362122,362.273926   C659.486938,348.618500 645.715820,348.335114 631.157043,351.364014   C625.344360,352.573334 621.481140,356.815918 617.789368,361.263214   C613.411987,366.536346 607.682495,368.946991 600.858398,366.951935   C594.059387,364.964172 589.021790,360.921417 587.511658,353.542480   C585.912598,345.729218 594.148621,334.449005 602.087952,333.491455   C602.984131,333.383362 603.813232,333.399933 604.316040,334.158783   C605.114197,335.363342 604.439148,336.364685 603.642639,337.284180   C601.353882,339.926270 598.924072,342.460144 596.803467,345.230774   C593.241577,349.884430 593.341492,354.101593 596.823364,357.314972   C600.713074,360.904694 605.455139,360.808258 609.705261,356.723724   C614.374084,352.236847 618.477173,347.054504 625.527710,345.163788  z"/>
<path fill="#000000" opacity="1.000000" stroke="none" d=" M553.229431,305.734802   C549.192627,300.471313 545.899109,294.939850 538.604370,294.269012   C536.538940,294.079041 535.775085,292.049896 536.093140,290.017029   C536.435791,287.826508 538.160034,286.976288 540.083801,286.944885   C544.075500,286.879700 548.070923,287.077911 552.065308,287.142334   C573.224976,287.483704 594.122681,290.698730 615.116272,292.865509   C617.863159,293.149017 620.047913,294.103638 620.362488,297.160889   C620.677917,300.227783 619.391724,302.462372 616.181335,302.901947   C613.651550,303.248322 612.478333,305.005676 611.375427,306.841644   C602.470093,321.666412 580.917725,330.138641 562.325195,314.062286   C559.305969,311.451630 556.417236,308.690125 553.229431,305.734802  M561.520874,296.306458   C559.390320,296.010010 557.260254,295.482941 555.129150,295.478851   C552.769043,295.474304 551.456726,296.889954 553.143188,299.006927   C560.504700,308.247711 573.153198,318.475342 587.523315,316.556396   C596.745056,315.324982 604.223694,309.627686 605.691284,302.590057   C601.386230,301.099457 596.903198,301.276215 592.469360,301.418793   C586.809326,301.600769 587.364441,308.935242 582.401611,310.411621   C580.312866,308.895508 579.527100,306.417389 578.598816,304.221344   C576.630188,299.564148 573.360107,297.184998 568.321045,297.027649   C566.340454,296.965851 564.369629,296.590302 561.520874,296.306458  z"/>
<path fill="#000000" opacity="1.000000" stroke="none" d=" M476.031158,272.756409   C474.906158,269.054535 473.758362,265.747131 473.033508,262.349487   C472.252350,258.687775 474.046326,256.351654 477.752625,256.394257   C485.234436,256.480194 492.671356,257.221924 499.715515,260.044586   C501.620697,260.807983 503.565613,261.943115 502.849854,264.406036   C502.158325,266.785675 499.999237,266.892609 497.907715,266.586548   C495.446014,266.226318 493.003204,265.718933 490.533844,265.435059   C488.933350,265.251068 487.073456,264.729675 485.919830,266.369812   C484.672668,268.142822 486.157562,269.495819 487.042572,270.821167   C488.239990,272.614349 489.540985,274.342346 490.863190,276.047394   C493.603088,279.580475 491.654327,282.021057 488.781494,283.857819   C485.897095,285.701965 482.778442,286.376831 480.747498,282.516174   C479.126831,279.435364 477.704773,276.250061 476.031158,272.756409  z"/>
<path fill="#000000" opacity="1.000000" stroke="none" d=" M644.555847,258.465027   C652.736267,254.883835 661.116089,253.543289 669.400879,251.877182   C670.996765,251.556244 672.735718,251.560791 674.351257,251.801086   C678.023315,252.347244 679.090759,254.784195 676.872437,257.837891   C673.657104,262.264069 670.255737,266.559845 666.817444,270.817322   C665.161377,272.867981 662.954285,274.519440 660.438110,272.405853   C658.068176,270.415070 659.626465,268.217041 660.943848,266.234039   C661.746765,265.025482 662.850586,263.901581 662.276917,261.973816   C658.133301,261.130920 654.541443,262.939453 650.905518,264.293549   C648.458313,265.204956 646.087036,265.857697 643.880371,263.958618   C641.736694,262.113708 640.975952,260.209137 644.555847,258.465027  z"/>
<path fill="#000000" opacity="1.000000" stroke="none" d=" M620.403931,329.189331   C622.637512,327.691864 624.639160,326.998932 626.303223,329.241821   C627.374451,330.685638 626.676880,332.076630 625.503052,333.154205   C624.065308,334.473999 622.290283,335.086273 620.559143,334.017914   C618.634277,332.830078 618.694458,331.124481 620.403931,329.189331  z"/>
<path fill="#000000" opacity="1.000000" stroke="none" d=" M614.886536,340.140076   C614.321838,342.940857 612.855835,344.313568 610.308044,344.140228   C608.772644,344.035767 607.914124,343.005005 607.915405,341.471863   C607.916992,339.608185 608.932922,338.295410 610.641174,337.697662   C612.652832,336.993774 614.248413,337.477356 614.886536,340.140076  z"/>
<path fill="#000000" opacity="1.000000" stroke="none" d=" M659.423340,327.472534   C662.296509,326.672760 663.977051,327.633698 664.667358,330.098175   C665.074890,331.553253 664.291138,332.631195 663.069031,333.384979   C661.555664,334.318329 660.181946,333.905060 659.062927,332.735352   C657.484497,331.085358 657.110840,329.334442 659.423340,327.472534  z"/>
<path fill="#000000" opacity="1.000000" stroke="none" d=" M673.668640,339.767670   C674.536194,342.297577 674.055176,344.064331 671.731628,344.846222   C670.502014,345.260010 669.448181,344.604797 668.819946,343.520172   C667.994507,342.095123 668.064819,340.635254 669.209778,339.405670   C670.594299,337.918854 672.057495,337.943604 673.668640,339.767670  z"/>
<path fill="#000000" opacity="1.000000" stroke="none" d=" M503.586792,720.081604   C503.589935,717.769653 503.368469,715.908081 503.647064,714.124634   C504.096985,711.244629 501.247955,707.054443 506.426331,705.907227   C513.148010,704.418152 518.458862,706.501160 520.598267,711.241699   C522.157776,714.697327 522.385010,718.214355 521.367249,721.921997   C518.871277,731.014099 511.647308,739.555481 503.979858,741.620544   C502.817383,734.558044 504.014740,727.521301 503.586792,720.081604  z"/>
<path fill="#000000" opacity="1.000000" stroke="none" d=" M599.017212,714.091675   C600.957092,711.640747 602.362061,709.107849 606.115540,708.133240   C606.115540,715.050293 606.393799,721.708069 605.974304,728.321655   C605.813660,730.853882 602.847595,730.184753 600.966064,730.238953   C591.324036,730.516418 590.697083,729.532410 595.033447,720.790955   C596.132202,718.575928 597.540527,716.514648 599.017212,714.091675  z"/>
<path fill="#000000" opacity="1.000000" stroke="none" d=" M465.456757,725.772217   C468.208099,718.718445 471.355957,712.430542 477.644379,708.125305   C480.269043,710.651001 479.020599,713.452820 479.267273,715.939148   C479.430695,717.586243 479.295227,719.262573 479.298981,720.925842   C479.320862,730.631042 477.764618,731.857178 467.915619,730.323303   C465.166016,729.895081 464.638947,728.511230 465.456757,725.772217  z"/>
<path fill="#000000" opacity="1.000000" stroke="none" d=" M578.269409,780.775879   C578.564392,781.552185 578.821106,782.034424 578.806702,782.508545   C578.731140,784.989319 580.025940,788.137573 576.144287,788.949890   C574.732666,789.245300 572.511719,789.306396 572.837158,787.225281   C573.305237,784.231995 573.735413,780.658081 578.269409,780.775879  z"/>
<path fill="#000000" opacity="1.000000" stroke="none" d=" M418.247559,783.045044   C417.874084,788.366638 415.186859,791.544495 410.346832,794.240051   C409.139526,788.844238 409.518829,784.086792 409.924286,779.432922   C410.162140,776.703064 414.109955,776.020752 416.245667,778.163452   C417.442413,779.364136 418.079437,780.917053 418.247559,783.045044  z"/>
</svg>