<svg xmlns="http://www.w3.org/2000/svg" xmlns:xlink="http://www.w3.org/1999/xlink" version="1.1" id="Layer_1" x="0px" y="0px" width="100%" viewBox="0 0 1770 684" enable-background="new 0 0 1770 684" xml:space="preserve">
<path fill="#FFFFFF" opacity="1.000000" stroke="none" d=" M1376.000000,685.000000   C917.333313,685.000000 459.166656,685.000000 1.000000,685.000000   C1.000000,457.000000 1.000000,229.000000 1.000000,1.000000   C591.000000,1.000000 1181.000000,1.000000 1771.000000,1.000000   C1771.000000,229.000000 1771.000000,457.000000 1771.000000,685.000000   C1639.500000,685.000000 1508.000000,685.000000 1376.000000,685.000000  M1496.561157,225.162430   C1511.087402,220.521988 1517.366211,209.091919 1519.805298,195.361740   C1525.116943,165.460968 1525.249146,135.349075 1520.685425,105.370476   C1517.155640,82.183052 1504.656128,69.199333 1481.744019,66.286903   C1446.144043,61.761688 1410.294678,64.420174 1374.376709,64.547600   C1374.376709,177.748306 1374.376709,290.949402 1374.376709,403.884125   C1405.012817,403.884125 1435.335083,404.233124 1465.642578,403.710663   C1477.603271,403.504486 1489.490845,400.975891 1500.063110,394.783783   C1514.896484,386.096008 1520.565918,371.692566 1522.919067,355.745300   C1527.123291,327.253540 1527.124268,298.636963 1523.887817,270.054565   C1521.862061,252.164902 1513.901611,238.478073 1495.408936,233.142273   C1490.783936,231.807785 1486.101074,230.673782 1480.383667,229.168228   C1486.268066,227.755371 1491.046997,226.607925 1496.561157,225.162430  M770.185242,273.500061   C770.185242,203.774002 770.185242,134.047943 770.185242,64.346146   C754.176636,64.346146 738.917053,64.346146 723.174072,64.346146   C723.174072,112.988380 723.174072,161.378906 723.174072,209.836975   C702.144714,209.836975 681.603455,209.836975 660.584717,209.836975   C660.584717,161.114502 660.584717,112.721825 660.584717,64.315613   C644.830383,64.315613 629.557373,64.315613 614.114014,64.315613   C614.114014,177.734451 614.114014,290.928528 614.114014,403.977356   C629.807800,403.977356 645.185242,403.977356 660.925110,403.977356   C660.925110,352.485779 660.925110,301.404602 660.925110,250.222595   C681.848267,250.222595 702.397888,250.222595 723.293823,250.222595   C723.293823,301.627625 723.293823,352.724091 723.293823,404.103424   C739.020569,404.103424 754.399475,404.103424 770.185364,404.103424   C770.185364,360.739349 770.185364,317.619690 770.185242,273.500061  M1325.666504,368.078247   C1331.045776,355.120178 1332.984619,341.537506 1332.985352,327.609039   C1332.989868,241.459381 1332.989746,155.309738 1332.979980,69.160080   C1332.979858,67.556480 1332.840454,65.952888 1332.769409,64.422073   C1316.977905,64.422073 1301.585571,64.422073 1285.998535,64.422073   C1285.998535,66.578552 1285.998535,68.400017 1285.998535,70.221481   C1285.998535,158.370743 1286.013062,246.520035 1285.954590,334.669250   C1285.951782,338.979492 1285.603394,343.336578 1284.914062,347.590546   C1282.844238,360.362122 1275.395630,368.069183 1262.665039,369.594177   C1256.136963,370.376190 1249.330200,370.194366 1242.802368,369.313721   C1231.566650,367.797882 1224.465698,360.932861 1222.208740,349.824921   C1221.091919,344.328308 1220.759033,338.591187 1220.753418,332.962189   C1220.666870,245.312927 1220.692139,157.663544 1220.691406,70.014183   C1220.691406,68.103699 1220.691406,66.193214 1220.691406,64.345894   C1204.606079,64.345894 1189.329590,64.345894 1173.650146,64.345894   C1173.650146,66.069504 1173.650269,67.535858 1173.650269,69.002213   C1173.651001,155.151871 1173.588501,241.301636 1173.753662,327.450989   C1173.769531,335.725464 1174.496582,344.137268 1176.107178,352.244202   C1181.064941,377.199127 1195.135986,394.718475 1219.878540,402.477753   C1239.543701,408.644775 1259.653687,408.829956 1279.629395,404.498993   C1300.413940,399.992706 1316.418823,388.769318 1325.666504,368.078247  M240.113022,335.277954   C240.765579,340.557281 241.076157,345.905823 242.128204,351.104309   C247.494736,377.622070 262.208740,395.950165 288.959534,403.219849   C309.985260,408.933716 331.133972,408.871613 352.054993,402.841522   C372.423950,396.970581 386.394897,383.864502 393.660645,363.850891   C397.971558,351.976532 399.263611,339.630127 399.259583,327.069916   C399.231964,241.096115 399.248138,155.122314 399.236969,69.148521   C399.236786,67.553642 399.073608,65.958771 398.992981,64.483353   C383.194183,64.483353 367.818390,64.483353 352.215546,64.483353   C352.215546,66.864677 352.215546,68.850723 352.215546,70.836761   C352.215515,158.143478 352.262634,245.450287 352.120880,332.756775   C352.110199,339.346497 351.355377,346.073120 349.870178,352.486877   C348.080597,360.215271 342.939819,365.643433 335.186646,368.096558   C325.069733,371.297668 314.883057,371.258392 304.727386,368.230316   C296.333099,365.727386 291.152588,359.935699 289.124756,351.625824   C287.913483,346.662201 287.094727,341.461578 287.087860,336.366150   C286.967896,247.560059 287.001160,158.753738 287.001068,69.947479   C287.001068,68.035919 287.001099,66.124359 287.001099,64.313454   C270.968262,64.313454 255.696838,64.313454 240.158829,64.313454   C240.097519,65.311676 240.005585,66.108467 240.005768,66.905243   C240.024857,156.044388 240.050827,245.183517 240.113022,335.277954  M961.689209,360.086884   C958.465515,374.649658 955.241882,389.212433 951.943054,404.114624   C967.784851,404.114624 983.195862,404.114624 998.963379,404.114624   C1004.102417,375.414459 1009.220032,346.833923 1014.366333,318.093445   C1039.024780,318.093445 1063.431030,318.093445 1087.794556,318.093445   C1092.977417,346.968750 1098.108643,375.556396 1103.213745,403.997864   C1119.099731,403.997864 1134.482056,403.997864 1150.177246,403.997864   C1127.113892,290.429443 1104.137085,177.287872 1081.150269,64.097221   C1063.702881,64.097221 1046.877686,64.184090 1030.054810,64.020828   C1026.852661,63.989746 1026.377808,65.460739 1025.808594,68.068001   C1016.097595,112.553696 1006.248352,157.009201 996.475769,201.481522   C984.919556,254.070602 973.407532,306.669403 961.689209,360.086884  M499.235474,368.603607   C491.898468,365.751923 487.568848,359.883698 486.166870,352.698456   C484.173065,342.479919 482.470276,332.016113 482.393219,321.644073   C482.016876,270.996521 482.179382,220.344620 482.254700,169.694397   C482.271545,158.370682 482.169312,147.002121 483.126373,135.739563   C483.807861,127.719955 485.357971,119.561798 487.981689,111.970505   C491.703979,101.200668 500.972107,97.937828 511.559082,98.042564   C521.966858,98.145523 530.942078,101.752777 534.688538,112.075089   C537.131714,118.806671 538.037781,126.246414 538.647583,133.452271   C539.299500,141.155182 538.794556,148.956024 538.794556,156.745514   C553.793640,156.745514 568.203613,156.745514 582.128662,156.745514   C582.128662,141.542160 583.231934,126.499321 581.878357,111.680901   C579.672119,87.528694 566.108398,71.649078 542.595764,64.974251   C525.635559,60.159546 508.434601,60.220665 491.209778,63.732716   C467.956238,68.473984 451.576080,81.443260 442.824677,103.778374   C436.886841,118.932671 435.342377,134.780304 435.306458,150.801849   C435.177948,208.116409 435.122742,265.432037 435.381531,322.745667   C435.427155,332.848145 436.354645,343.083313 438.190369,353.014038   C442.735077,377.599884 455.961823,395.431610 480.701843,402.847321   C498.703033,408.243073 517.207642,408.772980 535.573242,405.363495   C565.150940,399.872498 579.008545,385.351776 582.049683,355.253906   C583.649597,339.419617 582.643799,323.321777 582.786438,307.342682   C582.788696,307.093628 582.428589,306.841370 582.307312,306.682190   C567.838379,306.682190 553.453308,306.682190 537.998962,306.682190   C537.998962,318.359711 538.590637,329.700623 537.873718,340.958191   C536.456055,363.218079 520.067505,375.023041 499.235474,368.603607  M1564.861328,220.499969   C1564.861328,281.745331 1564.861328,342.990662 1564.861328,404.037476   C1607.805908,404.037476 1650.050171,404.037476 1692.460449,404.037476   C1692.460449,390.928558 1692.460449,378.171722 1692.460449,364.826172   C1665.523560,364.826172 1638.813354,364.826172 1612.230713,364.826172   C1612.230713,326.179901 1612.230713,288.124176 1612.230713,249.633774   C1637.659912,249.633774 1662.729858,249.633774 1687.640381,249.633774   C1687.640381,236.280579 1687.640381,223.367401 1687.640381,209.999176   C1662.246582,209.999176 1637.183472,209.999176 1612.089600,209.999176   C1612.089600,174.447601 1612.089600,139.359528 1612.089600,103.665283   C1638.994263,103.665283 1665.686035,103.665283 1692.339355,103.665283   C1692.339355,90.147522 1692.339355,77.239388 1692.339355,64.361717   C1649.729004,64.361717 1607.473389,64.361717 1564.861328,64.361717   C1564.861328,116.254494 1564.861328,167.877213 1564.861328,220.499969  M156.998535,252.500000   C156.998535,203.056015 156.998535,153.612030 156.998535,103.776390   C175.908401,103.776390 194.332886,103.776390 212.936829,103.776390   C212.936829,90.369583 212.936829,77.358810 212.936829,64.437973   C159.652161,64.437973 106.755486,64.437973 53.966309,64.437973   C53.966309,77.688736 53.966309,90.591423 53.966309,103.879807   C72.760063,103.879807 91.180183,103.879807 110.019836,103.879807   C110.019836,204.183472 110.019836,304.093750 110.019836,404.137054   C125.838455,404.137054 141.230957,404.137054 156.998474,404.137054   C156.998474,353.759491 156.998474,303.629730 156.998535,252.500000  M859.929016,317.500000   C859.929016,233.111740 859.929016,148.723495 859.929016,64.296249   C843.969971,64.296249 828.704956,64.296249 813.177124,64.296249   C813.177124,177.688202 813.177124,290.871521 813.177124,404.098572   C852.551331,404.098572 891.654236,404.098572 931.109680,404.098572   C933.969116,391.028717 936.789551,378.137268 939.719116,364.746735   C912.801575,364.746735 886.559265,364.746735 859.928833,364.746735   C859.928833,349.082245 859.928833,333.791107 859.929016,317.500000  M1148.293579,559.552063   C1151.351074,548.375793 1150.683350,537.106689 1148.670410,525.918457   C1147.718506,520.627625 1144.263916,516.558289 1138.695679,516.101074   C1126.690063,515.115356 1114.634033,514.743530 1102.575684,514.119385   C1102.575684,551.454468 1102.575684,587.547668 1102.575684,623.801941   C1107.600220,623.801941 1112.356934,623.801941 1117.677124,623.801941   C1117.677124,608.036255 1117.677124,592.474609 1117.677124,576.993408   C1131.696167,575.376221 1134.287476,577.644287 1134.358765,591.004211   C1134.405884,599.831482 1134.465942,608.658630 1134.531006,617.485779   C1134.565796,622.208801 1136.176025,625.016785 1141.676270,624.095520   C1144.390015,623.640991 1147.242554,624.016602 1149.689209,624.016602   C1149.689209,611.268860 1149.898804,598.976440 1149.565796,586.698669   C1149.461304,582.841797 1148.789673,578.431458 1146.745483,575.360901   C1144.815430,572.461792 1140.740112,570.990723 1138.511353,569.496704   C1141.302368,566.783691 1144.653076,563.526672 1148.293579,559.552063  M959.044495,572.500000   C959.044495,589.589783 959.044495,606.679626 959.044495,623.229980   C970.786499,623.229980 981.958313,623.873901 993.015015,623.022644   C1001.587585,622.362732 1005.952576,617.137329 1006.898804,608.559570   C1007.608337,602.127014 1007.938171,595.618225 1007.904175,589.146179   C1007.853516,579.489075 1007.185730,569.923706 994.425659,567.671265   C1002.061401,566.446289 1005.756470,561.990173 1006.179810,555.098450   C1006.678406,546.980957 1007.249329,538.778015 1006.616272,530.704041   C1005.838745,520.788269 1001.598755,515.806213 993.332336,515.316589   C982.093750,514.650940 970.786133,515.150818 959.044495,515.150818   C959.044495,533.931641 959.044495,552.715820 959.044495,572.500000  M729.961731,598.506348   C724.272400,570.561401 718.583069,542.616455 712.950623,514.950562   C706.637390,514.950562 701.023132,514.950562 695.259277,514.950562   C687.271729,551.301819 679.330444,587.442627 671.372253,623.660339   C676.668030,623.660339 681.577393,623.660339 686.483337,623.660339   C688.157532,614.375977 689.771362,605.426147 691.408752,596.346069   C699.378235,596.346069 706.991699,596.346069 714.920715,596.346069   C716.614380,605.533325 718.294861,614.648865 719.954407,623.651123   C725.142456,623.651123 730.004944,623.651123 735.081848,623.651123   C733.339111,615.295227 731.676941,607.325684 729.961731,598.506348  M1054.500488,596.142822   C1058.274658,596.142822 1062.048950,596.142822 1065.853271,596.142822   C1067.638672,605.770508 1069.323242,614.854248 1070.970337,623.735413   C1076.303467,623.735413 1081.055908,623.735413 1086.011719,623.735413   C1078.576782,587.189819 1071.203613,550.947632 1063.872559,514.912537   C1057.625244,514.912537 1052.004883,514.912537 1046.190674,514.912537   C1038.214722,551.246155 1030.275024,587.414062 1022.314880,623.675354   C1027.477051,623.675354 1032.379150,623.675354 1037.392700,623.675354   C1039.075195,614.430176 1040.703247,605.483459 1042.403076,596.142822   C1046.248413,596.142822 1049.884766,596.142822 1054.500488,596.142822  M613.188843,603.061340   C614.300537,612.551208 617.442444,621.201111 627.783203,623.340759   C634.401550,624.710144 641.608582,624.302734 648.396179,623.451599   C653.943237,622.756104 658.232788,618.726074 659.225891,613.009338   C660.368713,606.430603 660.480774,599.672791 661.052124,592.854004   C655.452759,592.854004 651.020630,592.854004 646.659851,592.854004   C646.178589,597.718506 646.079407,602.379089 645.167725,606.874878   C644.310974,611.100159 641.230896,613.178101 636.755981,613.098633   C632.057129,613.015137 629.840149,610.208862 629.035950,606.088745   C628.465820,603.167480 628.167175,600.148682 628.151062,597.171265   C628.066406,581.514709 628.036987,565.856995 628.148438,550.200867   C628.188599,544.553284 628.401123,538.878113 629.035034,533.272095   C629.639343,527.928284 632.709534,525.552002 637.739502,525.663330   C642.664429,525.772461 645.530396,528.423218 645.984497,533.803833   C646.273193,537.223816 646.038513,540.687927 646.038513,544.182556   C651.293579,544.182556 655.828125,544.182556 660.828186,544.182556   C660.554871,538.772339 660.556458,533.776611 659.990662,528.846008   C659.243408,522.334290 655.506592,517.809204 649.371704,515.576660   C642.086670,512.925537 634.621765,512.968628 627.385620,515.632812   C615.987915,519.829102 613.264832,529.600708 613.111023,540.189636   C612.811096,560.837769 613.074829,581.494202 613.188843,603.061340  M818.520081,514.713684   C815.222290,514.713684 811.924500,514.713684 808.429993,514.713684   C808.429993,551.346008 808.429993,587.551147 808.429993,623.734192   C822.179626,623.734192 835.609253,623.734192 848.984131,623.734192   C848.984131,619.540649 848.984131,615.623291 848.984131,611.106812   C840.313660,611.106812 831.930420,611.106812 823.568481,611.106812   C823.568481,598.587463 823.568481,586.678040 823.568481,574.222534   C831.759888,574.222534 839.656982,574.222534 847.583862,574.222534   C847.583862,569.758118 847.583862,565.852905 847.583862,561.425049   C839.356628,561.425049 831.440002,561.425049 823.603394,561.425049   C823.603394,549.816162 823.603394,538.738464 823.603394,527.105591   C832.328247,527.105591 840.723877,527.105591 848.890686,527.105591   C848.890686,522.639709 848.890686,518.743835 848.890686,514.713379   C838.835449,514.713379 829.175720,514.713379 818.520081,514.713684  M762.322937,624.018433   C763.731689,623.910339 765.140381,623.802185 766.993896,623.659912   C766.993896,606.991272 766.993896,590.769287 766.993896,574.183167   C775.244080,574.183167 783.013306,574.183167 790.793579,574.183167   C790.793579,569.866821 790.793579,565.931152 790.793579,561.609741   C782.808472,561.609741 775.042480,561.609741 767.039856,561.609741   C767.039856,550.001465 767.039856,538.784180 767.039856,527.020508   C775.742981,527.020508 784.123779,527.020508 792.448669,527.020508   C792.448669,522.698120 792.448669,518.927063 792.448669,515.078247   C778.682373,515.078247 765.164001,515.078247 751.704468,515.078247   C751.704468,551.542419 751.704468,587.611755 751.704468,624.018494   C755.097473,624.018494 758.235229,624.018494 762.322937,624.018433  M902.477905,592.082336   C912.301636,558.263672 922.125305,524.445007 932.002625,490.441803   C927.346802,490.441803 923.386780,490.441803 919.256775,490.441803   C903.612122,544.340332 888.010559,598.090454 872.293823,652.237549   C876.964294,652.237549 880.864990,652.237549 884.706543,652.237549   C885.018188,651.570679 885.291260,651.141479 885.427307,650.672546   C891.020874,631.395691 896.602234,612.115356 902.477905,592.082336  z"/>
<path fill="#242021" opacity="1.000000" stroke="none" d=" M1496.193604,225.311462   C1491.046997,226.607925 1486.268066,227.755371 1480.383667,229.168228   C1486.101074,230.673782 1490.783936,231.807785 1495.408936,233.142273   C1513.901611,238.478073 1521.862061,252.164902 1523.887817,270.054565   C1527.124268,298.636963 1527.123291,327.253540 1522.919067,355.745300   C1520.565918,371.692566 1514.896484,386.096008 1500.063110,394.783783   C1489.490845,400.975891 1477.603271,403.504486 1465.642578,403.710663   C1435.335083,404.233124 1405.012817,403.884125 1374.376709,403.884125   C1374.376709,290.949402 1374.376709,177.748306 1374.376709,64.547600   C1410.294678,64.420174 1446.144043,61.761688 1481.744019,66.286903   C1504.656128,69.199333 1517.155640,82.183052 1520.685425,105.370476   C1525.249146,135.349075 1525.116943,165.460968 1519.805298,195.361740   C1517.366211,209.091919 1511.087402,220.521988 1496.193604,225.311462  M1421.000000,355.483215   C1421.000000,359.421631 1421.000000,363.360016 1421.000000,367.414673   C1433.174194,367.414673 1444.830322,368.083130 1456.378296,367.249969   C1471.734375,366.142090 1476.647339,361.941864 1479.111572,346.549835   C1483.314697,320.295746 1483.222046,293.780151 1479.428833,267.503937   C1477.170288,251.859100 1470.392090,247.162430 1454.472046,247.012878   C1446.650269,246.939392 1438.827026,247.000092 1431.004517,247.000076   C1427.747559,247.000061 1424.490601,247.000076 1421.000000,247.000076   C1421.000000,283.289215 1421.000000,318.888428 1421.000000,355.483215  M1421.001343,183.500000   C1421.001343,192.276718 1421.001343,201.053421 1421.001343,209.850311   C1433.953613,209.850311 1446.432739,210.365311 1458.847778,209.695084   C1469.703979,209.109024 1475.375366,203.868546 1476.777954,193.052475   C1478.291748,181.376648 1479.149658,169.533997 1479.141479,157.764954   C1479.132812,145.338531 1478.376221,132.834229 1476.788940,120.513046   C1475.600342,111.287155 1469.888062,104.117271 1460.241943,102.901497   C1447.341187,101.275513 1434.263916,101.049553 1421.001343,100.205772   C1421.001343,128.573380 1421.001343,155.536682 1421.001343,183.500000  z"/>
<path fill="#242021" opacity="1.000000" stroke="none" d=" M770.185303,274.000061   C770.185364,317.619690 770.185364,360.739349 770.185364,404.103424   C754.399475,404.103424 739.020569,404.103424 723.293823,404.103424   C723.293823,352.724091 723.293823,301.627625 723.293823,250.222595   C702.397888,250.222595 681.848267,250.222595 660.925110,250.222595   C660.925110,301.404602 660.925110,352.485779 660.925110,403.977356   C645.185242,403.977356 629.807800,403.977356 614.114014,403.977356   C614.114014,290.928528 614.114014,177.734451 614.114014,64.315613   C629.557373,64.315613 644.830383,64.315613 660.584717,64.315613   C660.584717,112.721825 660.584717,161.114502 660.584717,209.836975   C681.603455,209.836975 702.144714,209.836975 723.174072,209.836975   C723.174072,161.378906 723.174072,112.988380 723.174072,64.346146   C738.917053,64.346146 754.176636,64.346146 770.185242,64.346146   C770.185242,134.047943 770.185242,203.774002 770.185303,274.000061  z"/>
<path fill="#242021" opacity="1.000000" stroke="none" d=" M1325.463501,368.400970   C1316.418823,388.769318 1300.413940,399.992706 1279.629395,404.498993   C1259.653687,408.829956 1239.543701,408.644775 1219.878540,402.477753   C1195.135986,394.718475 1181.064941,377.199127 1176.107178,352.244202   C1174.496582,344.137268 1173.769531,335.725464 1173.753662,327.450989   C1173.588501,241.301636 1173.651001,155.151871 1173.650269,69.002213   C1173.650269,67.535858 1173.650146,66.069504 1173.650146,64.345894   C1189.329590,64.345894 1204.606079,64.345894 1220.691406,64.345894   C1220.691406,66.193214 1220.691406,68.103699 1220.691406,70.014183   C1220.692139,157.663544 1220.666870,245.312927 1220.753418,332.962189   C1220.759033,338.591187 1221.091919,344.328308 1222.208740,349.824921   C1224.465698,360.932861 1231.566650,367.797882 1242.802368,369.313721   C1249.330200,370.194366 1256.136963,370.376190 1262.665039,369.594177   C1275.395630,368.069183 1282.844238,360.362122 1284.914062,347.590546   C1285.603394,343.336578 1285.951782,338.979492 1285.954590,334.669250   C1286.013062,246.520035 1285.998535,158.370743 1285.998535,70.221481   C1285.998535,68.400017 1285.998535,66.578552 1285.998535,64.422073   C1301.585571,64.422073 1316.977905,64.422073 1332.769409,64.422073   C1332.840454,65.952888 1332.979858,67.556480 1332.979980,69.160080   C1332.989746,155.309738 1332.989868,241.459381 1332.985352,327.609039   C1332.984619,341.537506 1331.045776,355.120178 1325.463501,368.400970  z"/>
<path fill="#242021" opacity="1.000000" stroke="none" d=" M240.094727,334.800293   C240.050827,245.183517 240.024857,156.044388 240.005768,66.905243   C240.005585,66.108467 240.097519,65.311676 240.158829,64.313454   C255.696838,64.313454 270.968262,64.313454 287.001099,64.313454   C287.001099,66.124359 287.001068,68.035919 287.001068,69.947479   C287.001160,158.753738 286.967896,247.560059 287.087860,336.366150   C287.094727,341.461578 287.913483,346.662201 289.124756,351.625824   C291.152588,359.935699 296.333099,365.727386 304.727386,368.230316   C314.883057,371.258392 325.069733,371.297668 335.186646,368.096558   C342.939819,365.643433 348.080597,360.215271 349.870178,352.486877   C351.355377,346.073120 352.110199,339.346497 352.120880,332.756775   C352.262634,245.450287 352.215515,158.143478 352.215546,70.836761   C352.215546,68.850723 352.215546,66.864677 352.215546,64.483353   C367.818390,64.483353 383.194183,64.483353 398.992981,64.483353   C399.073608,65.958771 399.236786,67.553642 399.236969,69.148521   C399.248138,155.122314 399.231964,241.096115 399.259583,327.069916   C399.263611,339.630127 397.971558,351.976532 393.660645,363.850891   C386.394897,383.864502 372.423950,396.970581 352.054993,402.841522   C331.133972,408.871613 309.985260,408.933716 288.959534,403.219849   C262.208740,395.950165 247.494736,377.622070 242.128204,351.104309   C241.076157,345.905823 240.765579,340.557281 240.094727,334.800293  z"/>
<path fill="#242021" opacity="1.000000" stroke="none" d=" M961.782776,359.675446   C973.407532,306.669403 984.919556,254.070602 996.475769,201.481522   C1006.248352,157.009201 1016.097595,112.553696 1025.808594,68.068001   C1026.377808,65.460739 1026.852661,63.989746 1030.054810,64.020828   C1046.877686,64.184090 1063.702881,64.097221 1081.150269,64.097221   C1104.137085,177.287872 1127.113892,290.429443 1150.177246,403.997864   C1134.482056,403.997864 1119.099731,403.997864 1103.213745,403.997864   C1098.108643,375.556396 1092.977417,346.968750 1087.794556,318.093445   C1063.431030,318.093445 1039.024780,318.093445 1014.366333,318.093445   C1009.220032,346.833923 1004.102417,375.414459 998.963379,404.114624   C983.195862,404.114624 967.784851,404.114624 951.943054,404.114624   C955.241882,389.212433 958.465515,374.649658 961.782776,359.675446  M1035.924683,198.365326   C1031.136108,224.782394 1026.347656,251.199478 1021.531494,277.769348   C1041.750732,277.769348 1061.318481,277.769348 1081.123535,277.769348   C1071.391235,223.018372 1061.715332,168.584259 1052.039307,114.150154   C1051.722778,114.159065 1051.406250,114.167984 1051.089600,114.176903   C1046.060547,141.953339 1041.031616,169.729767 1035.924683,198.365326  z"/>
<path fill="#242021" opacity="1.000000" stroke="none" d=" M499.608948,368.753998   C520.067505,375.023041 536.456055,363.218079 537.873718,340.958191   C538.590637,329.700623 537.998962,318.359711 537.998962,306.682190   C553.453308,306.682190 567.838379,306.682190 582.307312,306.682190   C582.428589,306.841370 582.788696,307.093628 582.786438,307.342682   C582.643799,323.321777 583.649597,339.419617 582.049683,355.253906   C579.008545,385.351776 565.150940,399.872498 535.573242,405.363495   C517.207642,408.772980 498.703033,408.243073 480.701843,402.847321   C455.961823,395.431610 442.735077,377.599884 438.190369,353.014038   C436.354645,343.083313 435.427155,332.848145 435.381531,322.745667   C435.122742,265.432037 435.177948,208.116409 435.306458,150.801849   C435.342377,134.780304 436.886841,118.932671 442.824677,103.778374   C451.576080,81.443260 467.956238,68.473984 491.209778,63.732716   C508.434601,60.220665 525.635559,60.159546 542.595764,64.974251   C566.108398,71.649078 579.672119,87.528694 581.878357,111.680901   C583.231934,126.499321 582.128662,141.542160 582.128662,156.745514   C568.203613,156.745514 553.793640,156.745514 538.794556,156.745514   C538.794556,148.956024 539.299500,141.155182 538.647583,133.452271   C538.037781,126.246414 537.131714,118.806671 534.688538,112.075089   C530.942078,101.752777 521.966858,98.145523 511.559082,98.042564   C500.972107,97.937828 491.703979,101.200668 487.981689,111.970505   C485.357971,119.561798 483.807861,127.719955 483.126373,135.739563   C482.169312,147.002121 482.271545,158.370682 482.254700,169.694397   C482.179382,220.344620 482.016876,270.996521 482.393219,321.644073   C482.470276,332.016113 484.173065,342.479919 486.166870,352.698456   C487.568848,359.883698 491.898468,365.751923 499.608948,368.753998  z"/>
<path fill="#242021" opacity="1.000000" stroke="none" d=" M1564.861328,219.999954   C1564.861328,167.877213 1564.861328,116.254494 1564.861328,64.361717   C1607.473389,64.361717 1649.729004,64.361717 1692.339355,64.361717   C1692.339355,77.239388 1692.339355,90.147522 1692.339355,103.665283   C1665.686035,103.665283 1638.994263,103.665283 1612.089600,103.665283   C1612.089600,139.359528 1612.089600,174.447601 1612.089600,209.999176   C1637.183472,209.999176 1662.246582,209.999176 1687.640381,209.999176   C1687.640381,223.367401 1687.640381,236.280579 1687.640381,249.633774   C1662.729858,249.633774 1637.659912,249.633774 1612.230713,249.633774   C1612.230713,288.124176 1612.230713,326.179901 1612.230713,364.826172   C1638.813354,364.826172 1665.523560,364.826172 1692.460449,364.826172   C1692.460449,378.171722 1692.460449,390.928558 1692.460449,404.037476   C1650.050171,404.037476 1607.805908,404.037476 1564.861328,404.037476   C1564.861328,342.990662 1564.861328,281.745331 1564.861328,219.999954  z"/>
<path fill="#231F21" opacity="1.000000" stroke="none" d=" M156.998505,253.000000   C156.998474,303.629730 156.998474,353.759491 156.998474,404.137054   C141.230957,404.137054 125.838455,404.137054 110.019836,404.137054   C110.019836,304.093750 110.019836,204.183472 110.019836,103.879807   C91.180183,103.879807 72.760063,103.879807 53.966309,103.879807   C53.966309,90.591423 53.966309,77.688736 53.966309,64.437973   C106.755486,64.437973 159.652161,64.437973 212.936829,64.437973   C212.936829,77.358810 212.936829,90.369583 212.936829,103.776390   C194.332886,103.776390 175.908401,103.776390 156.998535,103.776390   C156.998535,153.612030 156.998535,203.056015 156.998505,253.000000  z"/>
<path fill="#231F21" opacity="1.000000" stroke="none" d=" M859.928955,318.000000   C859.928833,333.791107 859.928833,349.082245 859.928833,364.746735   C886.559265,364.746735 912.801575,364.746735 939.719116,364.746735   C936.789551,378.137268 933.969116,391.028717 931.109680,404.098572   C891.654236,404.098572 852.551331,404.098572 813.177124,404.098572   C813.177124,290.871521 813.177124,177.688202 813.177124,64.296249   C828.704956,64.296249 843.969971,64.296249 859.929016,64.296249   C859.929016,148.723495 859.929016,233.111740 859.928955,318.000000  z"/>
<path fill="#2A2728" opacity="1.000000" stroke="none" d=" M1148.148682,559.910889   C1144.653076,563.526672 1141.302368,566.783691 1138.511353,569.496704   C1140.740112,570.990723 1144.815430,572.461792 1146.745483,575.360901   C1148.789673,578.431458 1149.461304,582.841797 1149.565796,586.698669   C1149.898804,598.976440 1149.689209,611.268860 1149.689209,624.016602   C1147.242554,624.016602 1144.390015,623.640991 1141.676270,624.095520   C1136.176025,625.016785 1134.565796,622.208801 1134.531006,617.485779   C1134.465942,608.658630 1134.405884,599.831482 1134.358765,591.004211   C1134.287476,577.644287 1131.696167,575.376221 1117.677124,576.993408   C1117.677124,592.474609 1117.677124,608.036255 1117.677124,623.801941   C1112.356934,623.801941 1107.600220,623.801941 1102.575684,623.801941   C1102.575684,587.547668 1102.575684,551.454468 1102.575684,514.119385   C1114.634033,514.743530 1126.690063,515.115356 1138.695679,516.101074   C1144.263916,516.558289 1147.718506,520.627625 1148.670410,525.918457   C1150.683350,537.106689 1151.351074,548.375793 1148.148682,559.910889  M1128.199219,563.097168   C1131.818970,562.482666 1133.820435,560.153809 1134.171997,556.695068   C1134.658325,551.910645 1134.972656,547.088501 1134.994629,542.280823   C1135.060425,527.875488 1133.589966,526.549744 1119.192017,527.361328   C1118.749634,527.386292 1118.325317,527.729431 1118.016113,527.868591   C1118.016113,539.876770 1118.016113,551.736389 1118.016113,563.982605   C1121.456055,563.719727 1124.416748,563.493469 1128.199219,563.097168  z"/>
<path fill="#252122" opacity="1.000000" stroke="none" d=" M959.044495,572.000000   C959.044495,552.715820 959.044495,533.931641 959.044495,515.150818   C970.786133,515.150818 982.093750,514.650940 993.332336,515.316589   C1001.598755,515.806213 1005.838745,520.788269 1006.616272,530.704041   C1007.249329,538.778015 1006.678406,546.980957 1006.179810,555.098450   C1005.756470,561.990173 1002.061401,566.446289 994.425659,567.671265   C1007.185730,569.923706 1007.853516,579.489075 1007.904175,589.146179   C1007.938171,595.618225 1007.608337,602.127014 1006.898804,608.559570   C1005.952576,617.137329 1001.587585,622.362732 993.015015,623.022644   C981.958313,623.873901 970.786499,623.229980 959.044495,623.229980   C959.044495,606.679626 959.044495,589.589783 959.044495,572.000000  M974.120789,601.474976   C974.120789,604.922424 974.120789,608.369812 974.120789,612.176270   C977.796509,612.176270 980.931458,612.231018 984.063843,612.164734   C990.366455,612.031433 992.505615,610.184021 993.076294,604.023926   C993.490051,599.557739 993.762756,595.060913 993.765991,590.577515   C993.778137,573.922729 991.848389,572.195496 975.250000,573.555908   C974.959229,573.579712 974.691345,573.882324 974.120789,574.235657   C974.120789,582.864197 974.120789,591.672302 974.120789,601.474976  M987.808655,527.306091   C983.406494,526.922913 979.004333,526.539673 974.367554,526.136047   C974.367554,538.378357 974.367554,549.778564 974.367554,561.546814   C978.225220,561.546814 981.845581,561.618713 985.461792,561.527832   C989.578308,561.424500 992.116577,559.284973 992.272461,555.127014   C992.527283,548.332825 992.845825,541.503174 992.382324,534.740234   C992.216125,532.315674 989.863281,530.041077 987.808655,527.306091  z"/>
<path fill="#272324" opacity="1.000000" stroke="none" d=" M729.988281,598.931274   C731.676941,607.325684 733.339111,615.295227 735.081848,623.651123   C730.004944,623.651123 725.142456,623.651123 719.954407,623.651123   C718.294861,614.648865 716.614380,605.533325 714.920715,596.346069   C706.991699,596.346069 699.378235,596.346069 691.408752,596.346069   C689.771362,605.426147 688.157532,614.375977 686.483337,623.660339   C681.577393,623.660339 676.668030,623.660339 671.372253,623.660339   C679.330444,587.442627 687.271729,551.301819 695.259277,514.950562   C701.023132,514.950562 706.637390,514.950562 712.950623,514.950562   C718.583069,542.616455 724.272400,570.561401 729.988281,598.931274  M694.259521,579.967041   C694.865601,581.120911 695.423401,583.242920 696.085327,583.275940   C701.516846,583.546692 706.967773,583.428650 712.894775,583.428650   C709.771545,565.920898 706.756165,549.017700 703.740845,532.114563   C703.484497,532.115845 703.228149,532.117065 702.971863,532.118347   C700.142761,547.778748 697.313660,563.439087 694.259521,579.967041  z"/>
<path fill="#272324" opacity="1.000000" stroke="none" d=" M1054.010742,596.142822   C1049.884766,596.142822 1046.248413,596.142822 1042.403076,596.142822   C1040.703247,605.483459 1039.075195,614.430176 1037.392700,623.675354   C1032.379150,623.675354 1027.477051,623.675354 1022.314880,623.675354   C1030.275024,587.414062 1038.214722,551.246155 1046.190674,514.912537   C1052.004883,514.912537 1057.625244,514.912537 1063.872559,514.912537   C1071.203613,550.947632 1078.576782,587.189819 1086.011719,623.735413   C1081.055908,623.735413 1076.303467,623.735413 1070.970337,623.735413   C1069.323242,614.854248 1067.638672,605.770508 1065.853271,596.142822   C1062.048950,596.142822 1058.274658,596.142822 1054.010742,596.142822  M1054.100464,532.401001   C1050.924194,549.273254 1047.747925,566.145508 1044.580688,582.969482   C1051.467285,582.969482 1057.493042,582.969482 1063.751587,582.969482   C1060.655151,565.629944 1057.651733,548.810852 1054.100464,532.401001  z"/>
<path fill="#272324" opacity="1.000000" stroke="none" d=" M613.146973,602.604248   C613.074829,581.494202 612.811096,560.837769 613.111023,540.189636   C613.264832,529.600708 615.987915,519.829102 627.385620,515.632812   C634.621765,512.968628 642.086670,512.925537 649.371704,515.576660   C655.506592,517.809204 659.243408,522.334290 659.990662,528.846008   C660.556458,533.776611 660.554871,538.772339 660.828186,544.182556   C655.828125,544.182556 651.293579,544.182556 646.038513,544.182556   C646.038513,540.687927 646.273193,537.223816 645.984497,533.803833   C645.530396,528.423218 642.664429,525.772461 637.739502,525.663330   C632.709534,525.552002 629.639343,527.928284 629.035034,533.272095   C628.401123,538.878113 628.188599,544.553284 628.148438,550.200867   C628.036987,565.856995 628.066406,581.514709 628.151062,597.171265   C628.167175,600.148682 628.465820,603.167480 629.035950,606.088745   C629.840149,610.208862 632.057129,613.015137 636.755981,613.098633   C641.230896,613.178101 644.310974,611.100159 645.167725,606.874878   C646.079407,602.379089 646.178589,597.718506 646.659851,592.854004   C651.020630,592.854004 655.452759,592.854004 661.052124,592.854004   C660.480774,599.672791 660.368713,606.430603 659.225891,613.009338   C658.232788,618.726074 653.943237,622.756104 648.396179,623.451599   C641.608582,624.302734 634.401550,624.710144 627.783203,623.340759   C617.442444,621.201111 614.300537,612.551208 613.146973,602.604248  z"/>
<path fill="#262223" opacity="1.000000" stroke="none" d=" M819.018066,514.713501   C829.175720,514.713379 838.835449,514.713379 848.890686,514.713379   C848.890686,518.743835 848.890686,522.639709 848.890686,527.105591   C840.723877,527.105591 832.328247,527.105591 823.603394,527.105591   C823.603394,538.738464 823.603394,549.816162 823.603394,561.425049   C831.440002,561.425049 839.356628,561.425049 847.583862,561.425049   C847.583862,565.852905 847.583862,569.758118 847.583862,574.222534   C839.656982,574.222534 831.759888,574.222534 823.568481,574.222534   C823.568481,586.678040 823.568481,598.587463 823.568481,611.106812   C831.930420,611.106812 840.313660,611.106812 848.984131,611.106812   C848.984131,615.623291 848.984131,619.540649 848.984131,623.734192   C835.609253,623.734192 822.179626,623.734192 808.429993,623.734192   C808.429993,587.551147 808.429993,551.346008 808.429993,514.713684   C811.924500,514.713684 815.222290,514.713684 819.018066,514.713501  z"/>
<path fill="#2B2829" opacity="1.000000" stroke="none" d=" M761.847961,624.018433   C758.235229,624.018494 755.097473,624.018494 751.704468,624.018494   C751.704468,587.611755 751.704468,551.542419 751.704468,515.078247   C765.164001,515.078247 778.682373,515.078247 792.448669,515.078247   C792.448669,518.927063 792.448669,522.698120 792.448669,527.020508   C784.123779,527.020508 775.742981,527.020508 767.039856,527.020508   C767.039856,538.784180 767.039856,550.001465 767.039856,561.609741   C775.042480,561.609741 782.808472,561.609741 790.793579,561.609741   C790.793579,565.931152 790.793579,569.866821 790.793579,574.183167   C783.013306,574.183167 775.244080,574.183167 766.993896,574.183167   C766.993896,590.769287 766.993896,606.991272 766.993896,623.659912   C765.140381,623.802185 763.731689,623.910339 761.847961,624.018433  z"/>
<path fill="#272425" opacity="1.000000" stroke="none" d=" M902.331543,592.458862   C896.602234,612.115356 891.020874,631.395691 885.427307,650.672546   C885.291260,651.141479 885.018188,651.570679 884.706543,652.237549   C880.864990,652.237549 876.964294,652.237549 872.293823,652.237549   C888.010559,598.090454 903.612122,544.340332 919.256775,490.441803   C923.386780,490.441803 927.346802,490.441803 932.002625,490.441803   C922.125305,524.445007 912.301636,558.263672 902.331543,592.458862  z"/>
<path fill="#FEFEFE" opacity="1.000000" stroke="none" d=" M1421.000000,354.985443   C1421.000000,318.888428 1421.000000,283.289215 1421.000000,247.000076   C1424.490601,247.000076 1427.747559,247.000061 1431.004517,247.000076   C1438.827026,247.000092 1446.650269,246.939392 1454.472046,247.012878   C1470.392090,247.162430 1477.170288,251.859100 1479.428833,267.503937   C1483.222046,293.780151 1483.314697,320.295746 1479.111572,346.549835   C1476.647339,361.941864 1471.734375,366.142090 1456.378296,367.249969   C1444.830322,368.083130 1433.174194,367.414673 1421.000000,367.414673   C1421.000000,363.360016 1421.000000,359.421631 1421.000000,354.985443  z"/>
<path fill="#FFFFFF" opacity="1.000000" stroke="none" d=" M1421.001343,183.000000   C1421.001343,155.536682 1421.001343,128.573380 1421.001343,100.205772   C1434.263916,101.049553 1447.341187,101.275513 1460.241943,102.901497   C1469.888062,104.117271 1475.600342,111.287155 1476.788940,120.513046   C1478.376221,132.834229 1479.132812,145.338531 1479.141479,157.764954   C1479.149658,169.533997 1478.291748,181.376648 1476.777954,193.052475   C1475.375366,203.868546 1469.703979,209.109024 1458.847778,209.695084   C1446.432739,210.365311 1433.953613,209.850311 1421.001343,209.850311   C1421.001343,201.053421 1421.001343,192.276718 1421.001343,183.000000  z"/>
<path fill="#FDFDFD" opacity="1.000000" stroke="none" d=" M1035.963623,197.935760   C1041.031616,169.729767 1046.060547,141.953339 1051.089600,114.176903   C1051.406250,114.167984 1051.722778,114.159065 1052.039307,114.150154   C1061.715332,168.584259 1071.391235,223.018372 1081.123535,277.769348   C1061.318481,277.769348 1041.750732,277.769348 1021.531494,277.769348   C1026.347656,251.199478 1031.136108,224.782394 1035.963623,197.935760  z"/>
<path fill="#FAFAFA" opacity="1.000000" stroke="none" d=" M1127.788330,563.182190   C1124.416748,563.493469 1121.456055,563.719727 1118.016113,563.982605   C1118.016113,551.736389 1118.016113,539.876770 1118.016113,527.868591   C1118.325317,527.729431 1118.749634,527.386292 1119.192017,527.361328   C1133.589966,526.549744 1135.060425,527.875488 1134.994629,542.280823   C1134.972656,547.088501 1134.658325,551.910645 1134.171997,556.695068   C1133.820435,560.153809 1131.818970,562.482666 1127.788330,563.182190  z"/>
<path fill="#FAFAFA" opacity="1.000000" stroke="none" d=" M974.120789,600.977722   C974.120789,591.672302 974.120789,582.864197 974.120789,574.235657   C974.691345,573.882324 974.959229,573.579712 975.250000,573.555908   C991.848389,572.195496 993.778137,573.922729 993.765991,590.577515   C993.762756,595.060913 993.490051,599.557739 993.076294,604.023926   C992.505615,610.184021 990.366455,612.031433 984.063843,612.164734   C980.931458,612.231018 977.796509,612.176270 974.120789,612.176270   C974.120789,608.369812 974.120789,604.922424 974.120789,600.977722  z"/>
<path fill="#F8F8F8" opacity="1.000000" stroke="none" d=" M988.158569,527.502075   C989.863281,530.041077 992.216125,532.315674 992.382324,534.740234   C992.845825,541.503174 992.527283,548.332825 992.272461,555.127014   C992.116577,559.284973 989.578308,561.424500 985.461792,561.527832   C981.845581,561.618713 978.225220,561.546814 974.367554,561.546814   C974.367554,549.778564 974.367554,538.378357 974.367554,526.136047   C979.004333,526.539673 983.406494,526.922913 988.158569,527.502075  z"/>
<path fill="#FAFAFA" opacity="1.000000" stroke="none" d=" M694.372070,579.533264   C697.313660,563.439087 700.142761,547.778748 702.971863,532.118347   C703.228149,532.117065 703.484497,532.115845 703.740845,532.114563   C706.756165,549.017700 709.771545,565.920898 712.894775,583.428650   C706.967773,583.428650 701.516846,583.546692 696.085327,583.275940   C695.423401,583.242920 694.865601,581.120911 694.372070,579.533264  z"/>
<path fill="#FAFAFA" opacity="1.000000" stroke="none" d=" M1054.374268,532.196411   C1057.651733,548.810852 1060.655151,565.629944 1063.751587,582.969482   C1057.493042,582.969482 1051.467285,582.969482 1044.580688,582.969482   C1047.747925,566.145508 1050.924194,549.273254 1054.374268,532.196411  z"/>
</svg>