<svg xmlns="http://www.w3.org/2000/svg" xmlns:xlink="http://www.w3.org/1999/xlink" id="Ebene_1" x="0px" y="0px" viewBox="0 0 800 800" style="enable-background:new 0 0 800 800;" xml:space="preserve" data-jetski-tab-id="error">
<style type="text/css">
	.st0{fill:#FFFFFF;}
	.st1{clip-path:url(#SVGID_2_);}
	.st2{clip-path:url(#SVGID_4_);fill:#000000;}
</style>
<rect x="131.93" y="132.26" transform="matrix(0.7071 0.7071 -0.7071 0.7071 400.155 -165.5603)" class="st0" width="535.99" height="535.99"/>
<g>
	<defs>
		<path id="SVGID_1_" d="M397.57,538.77c-6.61,12.85-14.16,25.23-22.18,37.6c-0.95,1.43-2.83,2.38-4.72,2.38    c-1.89,0-3.77-0.95-4.72-2.38c-60.89-91.86-78.35-205.63-78.35-313.68c0-8.57,0.47-35.22,0.47-35.22c0-2.86,2.84-5.71,6.13-5.71    H306c3.3,0,5.66,2.85,5.66,5.71c0,11.9-0.47,24.27-0.47,50.45c0,95.2,17.93,183.74,57.11,256.56c0.47,0.95,1.41,1.43,2.36,1.43    c0.95,0,1.89-0.47,2.36-1.43c4.72-8.57,8.97-17.61,13.21-27.13c0.48-0.95,0.48-1.91,0.48-2.86c0-0.95,0-1.9-0.48-2.85    c-30.2-75.21-39.64-158.03-39.64-238.95c0-8.57,0.47-35.22,0.47-35.22c0-2.86,2.83-5.71,6.13-5.71H365c3.31,0,5.67,2.85,5.67,5.71    c0,11.9-0.47,24.27-0.47,49.98c0,65.68,9.43,128.04,26.9,184.69c0.48,1.43,1.41,2.38,2.83,2.38c1.42,0,2.37-0.95,2.84-2.38    c17.46-56.64,26.9-119,26.9-184.69c0-25.71-0.47-38.08-0.47-49.98c0-2.86,2.37-5.71,5.67-5.71h11.8c3.31,0,6.13,2.85,6.13,5.71    c0,0,0.48,26.65,0.48,35.22c0,80.92-9.45,163.75-39.65,238.95c-0.47,0.95-0.47,1.91-0.47,2.85c0,0.95,0,1.91,0.47,2.86    c4.25,9.52,8.49,18.56,13.22,27.13c0.47,0.95,1.41,1.43,2.35,1.43c0.95,0,1.89-0.47,2.37-1.43    c39.17-72.82,57.1-161.36,57.1-256.56c0-26.18-0.47-38.55-0.47-50.45c0-2.86,2.36-5.71,5.67-5.71h11.8c3.3,0,6.13,2.85,6.13,5.71    c0,0,0.48,26.65,0.48,35.22c0,108.05-17.47,221.82-78.35,313.68c-0.95,1.43-2.83,2.38-4.72,2.38c-1.88,0-3.77-0.95-4.72-2.38    c-8.02-12.37-15.57-24.75-22.18-37.6c-0.48-0.95-1.41-1.9-2.37-1.9C398.98,536.87,398.04,537.81,397.57,538.77"/>
	</defs>
	<use xlink:href="#SVGID_1_" style="overflow:visible;fill-rule:evenodd;clip-rule:evenodd;fill:#000000;"/>
	<clipPath id="SVGID_2_">
		<use xlink:href="#SVGID_1_" style="overflow:visible;"/>
	</clipPath>
	<g class="st1">
		<defs>
			<rect id="SVGID_3_" x="-900.35" y="-800" width="3939.29" height="7484.66"/>
		</defs>
		<use xlink:href="#SVGID_3_" style="overflow:visible;fill:#000000;"/>
		<clipPath id="SVGID_4_">
			<use xlink:href="#SVGID_3_" style="overflow:visible;"/>
		</clipPath>
		<rect x="272.21" y="206.36" class="st2" width="255.44" height="387.77"/>
	</g>
</g>
</svg>