<svg xmlns:dc="http://purl.org/dc/elements/1.1/" xmlns:cc="http://creativecommons.org/ns#" xmlns:rdf="http://www.w3.org/1999/02/22-rdf-syntax-ns#"
xmlns:svg="http://www.w3.org/2000/svg" xmlns="http://www.w3.org/2000/svg" xmlns:sodipodi="http://sodipodi.sourceforge.net/DTD/sodipodi-0.dtd"
xmlns:inkscape="http://www.inkscape.org/namespaces/inkscape" version="1.1" id="svg5346" inkscape:version="0.92.5 (2060ec1f9f, 2020-04-08)"
sodipodi:docname="Schrift.svg" viewBox="37.89 81.06 213.07 40.38">  <defs id="defs5340"></defs>  <sodipodi:namedview id="base"
pagecolor="#ffffff" bordercolor="#666666" borderopacity="1.0" inkscape:pageopacity="0.0" inkscape:pageshadow="2" inkscape:zoom="1.979899"
inkscape:cx="564.82659" inkscape:cy="337.97419" inkscape:document-units="mm" inkscape:current-layer="g5971" showgrid="false"
inkscape:window-width="3000" inkscape:window-height="1875" inkscape:window-x="-13" inkscape:window-y="-13"
inkscape:window-maximized="1"></sodipodi:namedview>  <metadata id="metadata5343">    
<rdf:RDF>      
<cc:Work rdf:about="">        
<dc:format>image/svg+xml</dc:format>        
<dc:type rdf:resource="http://purl.org/dc/dcmitype/StillImage"></dc:type>        
<dc:title>
</dc:title>      
</cc:Work>    
</rdf:RDF>  
</metadata>  
<g inkscape:label="Ebene 1" inkscape:groupmode="layer" id="layer1" transform="translate(0,-87)">    
<g id="g5971" transform="translate(130.40178,209.02084)">      
<g id="g1437">        
<path id="path1710-8-3-9" style="font-style:normal;font-variant:normal;font-weight:normal;font-stretch:normal;font-size:23.40892601px;line-height:0.81999999;font-family:MrAlex-Bold;-inkscape-font-specification:'MrAlex-Bold, Normal';font-variant-ligatures:normal;font-variant-caps:normal;font-variant-numeric:normal;font-feature-settings:normal;text-align:center;letter-spacing:-0.53258169px;word-spacing:0px;writing-mode:lr-tb;text-anchor:middle;fill:currentColor;fill-opacity:1;stroke:none;stroke-width:2.15617251" d="m -80.091514,-15.223108 v 5.4006741 c 0,1.413263 -0.25238,2.321788 -0.75712,2.77605 -0.50471,0.454263 -1.36279,0.656167 -2.52367,0.656167 -1.21138,0 -2.06943,-0.201818 -2.57417,-0.706643 -0.50474,-0.454262 -0.75709,-1.362787 -0.75709,-2.725574 v -1.1608841 c 0,-0.807594 -0.45427,-1.261856 -1.26184,-1.261856 h -3.28079 c -0.85807,0 -1.26185,0.454262 -1.26185,1.261856 v 3.8359821 c 0,4.391218 2.17038,6.56157903 6.56157,6.56157903 h 5.09784 c 4.34074,0 6.56158,-2.17036103 6.56158,-6.56157903 V -17.99918 c 0,-4.34072 -2.22084,-6.561578 -6.56158,-6.561578 h -2.22083 c -1.31232,0 -2.27132,-0.151363 -2.82653,-0.555193 -0.55522,-0.403808 -0.80757,-1.312333 -0.80757,-2.826526 v -3.785528 c 0,-1.312333 0.25235,-2.220858 0.75709,-2.725596 0.50474,-0.454263 1.36279,-0.706621 2.57417,-0.706621 1.16088,0 2.01896,0.252358 2.52367,0.706621 0.50474,0.454262 0.75712,1.362809 0.75712,2.725596 v 1.160883 c 0,0.858049 0.40379,1.261836 1.26184,1.261836 h 3.28079 c 0.80757,0 1.26183,-0.403787 1.26183,-1.261836 v -3.836003 c 0,-4.340721 -2.22084,-6.561579 -6.56158,-6.561579 h -5.09784 c -4.39119,0 -6.56157,2.220858 -6.56157,6.561579 v 9.135746 c 0,2.220837 0.55521,3.88648 1.71611,4.996887 1.11041,1.110429 2.72558,1.615167 4.84546,1.615167 h 2.72558 c 1.21138,0 2.01895,0.201818 2.47321,0.605691 0.40379,0.403786 0.65617,1.312311 0.65617,2.826526 z" inkscape:connector-curvature="0">
</path>        
<path id="path1712-3-4-0" style="font-style:normal;font-variant:normal;font-weight:normal;font-stretch:normal;font-size:23.40892601px;line-height:0.81999999;font-family:MrAlex-Bold;-inkscape-font-specification:'MrAlex-Bold, Normal';font-variant-ligatures:normal;font-variant-caps:normal;font-variant-numeric:normal;font-feature-settings:normal;text-align:center;letter-spacing:-0.53258169px;word-spacing:0px;writing-mode:lr-tb;text-anchor:middle;fill:currentColor;fill-opacity:1;stroke:none;stroke-width:2.15617251" d="m -58.230164,-12.245174 c -0.85805,0 -1.26184,0.454262 -1.26184,1.261856 v 1.1608841 c 0,0.858049 -0.10091,1.514215 -0.20181,2.018954 -0.15137,0.504738 -0.40379,0.807572 -0.7571,1.009476 -0.35331,0.201818 -0.65617,0.353311 -0.959,0.353311 -0.30284,0.05045 -0.7571,0.05045 -1.36279,0.05045 -1.26186,0 -2.11991,-0.151363 -2.57417,-0.555214 -0.50474,-0.403787 -0.70662,-1.362787 -0.70662,-2.877003 V -31.728026 c 0,-1.514216 0.20182,-2.422741 0.70662,-2.826527 0.45426,-0.403787 1.31231,-0.605691 2.57417,-0.605691 1.41326,0 2.32179,0.252359 2.72557,0.656167 0.35332,0.403786 0.55522,1.362787 0.55522,2.776051 v 1.160883 c 0,0.858049 0.40379,1.261835 1.26183,1.261835 h 3.28079 c 0.80758,0 1.26184,-0.403786 1.26184,-1.261835 v -3.836004 c 0,-4.34072 -2.22084,-6.561578 -6.56158,-6.561578 h -5.04736 c -4.3912,0 -6.56158,2.220858 -6.56158,6.561578 v 27.2557901 c 0,4.391218 2.17038,6.56157803 6.56158,6.56157803 h 5.04736 c 4.34074,0 6.56158,-2.17036003 6.56158,-6.56157803 v -3.8359821 c 0,-0.807595 -0.45426,-1.261857 -1.26184,-1.261857 z" inkscape:connector-curvature="0"></path>        <path id="path1714-8-9-9" style="font-style:normal;font-variant:normal;font-weight:normal;font-stretch:normal;font-size:23.40892601px;line-height:0.81999999;font-family:MrAlex-Bold;-inkscape-font-specification:'MrAlex-Bold, Normal';font-variant-ligatures:normal;font-variant-caps:normal;font-variant-numeric:normal;font-feature-settings:normal;text-align:center;letter-spacing:-0.53258169px;word-spacing:0px;writing-mode:lr-tb;text-anchor:middle;fill:currentColor;fill-opacity:1;stroke:none;stroke-width:2.15617251" d="m -38.890134,-1.8475929 c 0,0.85804903 0.4038,1.26183603 1.26185,1.26183603 h 3.28079 c 0.80757,0 1.26184,-0.403787 1.26184,-1.26183603 V -39.702847 c 0,-0.807594 -0.45427,-1.261857 -1.26184,-1.261857 h -3.28079 c -0.85805,0 -1.26185,0.454263 -1.26185,1.261857 v 13.425991 c 0,0.656167 -0.15137,1.110429 -0.40379,1.362788 -0.30284,0.302856 -0.7571,0.403786 -1.36279,0.403786 h -3.07888 c -0.65617,0 -1.11043,-0.100909 -1.36279,-0.403786 -0.30286,-0.252359 -0.40379,-0.706621 -0.40379,-1.362788 v -13.425991 c 0,-0.807594 -0.45426,-1.261857 -1.26185,-1.261857 h -3.28079 c -0.85805,0 -1.26184,0.454263 -1.26184,1.261857 v 37.8552541 c 0,0.85804903 0.40379,1.26183603 1.26184,1.26183603 h 3.28079 c 0.80759,0 1.26185,-0.403787 1.26185,-1.26183603 V -16.939227 c 0,-0.60569 0.10091,-1.059953 0.40379,-1.362787 0.25236,-0.252359 0.70662,-0.403787 1.36279,-0.403787 h 3.07888 c 0.60569,0 1.05995,0.151364 1.36279,0.403787 0.25238,0.302834 0.40379,0.757097 0.40379,1.362787 z" inkscape:connector-curvature="0"></path>        <path sodipodi:nodetypes="scsssssscssssss" id="path1716-1-0-5" style="font-style:normal;font-variant:normal;font-weight:normal;font-stretch:normal;font-size:23.40892601px;line-height:0.81999999;font-family:MrAlex-Bold;-inkscape-font-specification:'MrAlex-Bold, Normal';font-variant-ligatures:normal;font-variant-caps:normal;font-variant-numeric:normal;font-feature-settings:normal;text-align:center;letter-spacing:-0.53258169px;word-spacing:0px;writing-mode:lr-tb;text-anchor:middle;fill:currentColor;fill-opacity:1;stroke:none;stroke-width:2.15617251" d="m -29.189774,-2.3523309 c 0,0.706642 0.10091,1.160905 0.35331,1.41326303 0.25238,0.25238 0.70664,0.353311 1.41326,0.353311 h 67.26463 c 0.807595,0 1.261857,-0.403787 1.261857,-1.26183603 v -3.280789 c 0,-0.807573 -0.454262,-1.261835 -1.261857,-1.261835 h -61.71253 c -0.60567,0 -1.00947,-0.100909 -1.21136,-0.302856 -0.20181,-0.201818 -0.30285,-0.605669 -0.30285,-1.211359 V -39.702847 c 0,-0.807594 -0.45427,-1.261857 -1.26184,-1.261857 h -3.28079 c -0.85805,0 -1.26183,0.454263 -1.26183,1.261857 z" inkscape:connector-curvature="0"></path>        <path id="path1718-8-1-5" style="font-style:normal;font-variant:normal;font-weight:normal;font-stretch:normal;font-size:23.40892601px;line-height:0.81999999;font-family:MrAlex-Bold;-inkscape-font-specification:'MrAlex-Bold, Normal';font-variant-ligatures:normal;font-variant-caps:normal;font-variant-numeric:normal;font-feature-settings:normal;text-align:center;letter-spacing:-0.53258169px;word-spacing:0px;writing-mode:lr-tb;text-anchor:middle;fill:currentColor;fill-opacity:1;stroke:none;stroke-width:1.78175926" d="m -5.6888742,-15.647291 c 0,1.334692 -0.20872,2.210572 -0.58394,2.627662 -0.37536,0.417091 -1.0427,0.625636 -2.04372,0.625636 h -0.25027 c -0.9593,0 -1.6266398,-0.208502 -2.0020498,-0.667336 -0.41707,-0.41709 -0.58391,-1.29297 -0.58391,-2.585962 v -24.274687 c 0,-0.667336 -0.37539,-1.042726 -1.04273,-1.042726 h -2.71111 c -0.70903,0 -1.0427,0.37539 -1.0427,1.042726 v 26.902349 c 0,3.6287101 1.79348,5.4221711 5.42217,5.4221711 h 4.2126198 c 3.58699,0 5.42219997,-1.793461 5.42219997,-5.4221711 v -26.902349 c 0,-0.667336 -0.37541997,-1.042726 -1.04274997,-1.042726 h -2.71106 c -0.70908,0 -1.04275,0.37539 -1.04275,1.042726 z" inkscape:connector-curvature="0"></path>        <path id="path1720-3-6-8" style="font-style:normal;font-variant:normal;font-weight:normal;font-stretch:normal;font-size:23.40892601px;line-height:0.81999999;font-family:MrAlex-Bold;-inkscape-font-specification:'MrAlex-Bold, Normal';font-variant-ligatures:normal;font-variant-caps:normal;font-variant-numeric:normal;font-feature-settings:normal;text-align:center;letter-spacing:-0.53258169px;word-spacing:0px;writing-mode:lr-tb;text-anchor:middle;fill:currentColor;fill-opacity:1;stroke:none;stroke-width:1.7952956" d="m 4.4319858,-8.3945949 c 0,0.714448 0.33621,1.050638 1.05066,1.050638 h 2.731674 c 0.672424,0 1.05066,-0.33619 1.05066,-1.050638 V -21.170478 c 0,-0.462284 0.08409,-0.798496 0.252142,-0.966591 0.167966,-0.167966 0.5043082,-0.294188 1.0086362,-0.294188 h 3.193982 c 3.614198,0 5.463353,-1.80711 5.463353,-5.463375 v -7.606697 c 0,-3.614219 -1.849155,-5.463375 -5.463353,-5.463375 H 5.9029058 c -0.58838,0 -0.96662,0.125921 -1.17673,0.336212 -0.21023,0.210227 -0.29419,0.588355 -0.29419,1.134708 z M 11.450325,-36.131707 c 1.092684,0 1.849134,0.167966 2.269415,0.420259 0.42026,0.294167 0.630379,1.050639 0.630379,2.269394 v 3.488148 c 0,0.672402 -0.08409,1.218755 -0.167966,1.554967 -0.08409,0.378236 -0.294167,0.6304 -0.588355,0.798495 -0.33619,0.167966 -0.588376,0.294167 -0.840519,0.294167 -0.252143,0.04205 -0.714426,0.04205 -1.302803,0.04205 h -0.924567 c -0.504307,0 -0.8405192,-0.08409 -1.0086362,-0.294188 -0.167965,-0.167966 -0.252142,-0.504307 -0.252142,-0.966591 v -6.345917 c 0,-0.462284 0.08409,-0.798496 0.252142,-0.966613 0.167966,-0.167965 0.5043292,-0.294166 1.0086362,-0.294166 z" inkscape:connector-curvature="0"></path>        <path sodipodi:nodetypes="ssssscsssssscsscsssssscss" inkscape:connector-curvature="0" id="path1722-3-3-5" style="font-style:normal;font-variant:normal;font-weight:normal;font-stretch:normal;font-size:23.40892601px;line-height:0.81999999;font-family:MrAlex-Bold;-inkscape-font-specification:'MrAlex-Bold, Normal';font-variant-ligatures:normal;font-variant-caps:normal;font-variant-numeric:normal;font-feature-settings:normal;text-align:center;letter-spacing:-0.53258169px;word-spacing:0px;writing-mode:lr-tb;text-anchor:middle;fill:currentColor;fill-opacity:1;stroke:none;stroke-width:1.76536453" d="m 23.664892,-8.9376059 c 0,0.702524 0.330606,1.03313 1.03313,1.03313 h 2.686138 c 0.661212,0 1.033152,-0.330606 1.033152,-1.03313 V -21.50048 c 0,-0.454586 0.08258,-0.785192 0.247938,-0.950485 0.165163,-0.165162 0.49592,-0.289272 0.991797,-0.289272 h 3.058078 c 0.661212,0 1.033151,-0.330606 1.033151,-1.03313 v -2.686138 c 0,-0.661233 -0.371939,-1.033152 -1.033151,-1.033152 h -3.058078 c -0.495877,0 -0.826504,-0.08258 -0.991797,-0.289272 -0.165162,-0.165163 -0.247938,-0.495919 -0.247938,-0.950484 v -6.240114 c 0,-0.454586 0.08258,-0.78517 0.247938,-0.950484 0.165163,-0.165163 0.49592,-0.289272 0.991797,-0.289272 h 8.488636 c 0.661211,0 1.03313,-0.330606 1.03313,-1.03313 v -2.686139 c 0,-0.661233 -0.371919,-1.033152 -1.03313,-1.033152 H 25.111274 c -0.578544,0 -0.950484,0.12398 -1.15711,0.330606 -0.206561,0.206562 -0.289272,0.578566 -0.289272,1.115798 z"></path>        <path id="path1724-4-9-4" style="font-style:normal;font-variant:normal;font-weight:normal;font-stretch:normal;font-size:40.00000381px;line-height:0.81999999;font-family:MrAlex-Bold;-inkscape-font-specification:'MrAlex-Bold, Normal';font-variant-ligatures:normal;font-variant-caps:normal;font-variant-numeric:normal;font-feature-settings:normal;text-align:center;letter-spacing:-0.53258169px;word-spacing:0px;writing-mode:lr-tb;text-anchor:middle;fill:currentColor;fill-opacity:1;stroke:none;stroke-width:1.2793864" d="m 43.9698,-2.352581 c 0,0.706632 0.10377,1.160896 0.3632,1.413265 0.25944,0.252369 0.72642,0.353316 1.45284,0.353316 h 11.46701 c 0.83019,0 1.29718,-0.40379 1.29718,-1.261844 v -3.280794 c 0,-0.807579 -0.46699,-1.261844 -1.29718,-1.261844 H 51.4934 c -0.62264,0 -1.03774,-0.100947 -1.24528,-0.302842 -0.20755,-0.201895 -0.31132,-0.605685 -0.31132,-1.21137 v -31.798463 c 0,-0.80758 -0.46699,-1.261843 -1.29718,-1.261843 h -3.37265 c -0.88208,0 -1.29717,0.454263 -1.29717,1.261843 z" inkscape:connector-curvature="0"></path>        <path id="path1726-8-8-6" style="font-style:normal;font-variant:normal;font-weight:normal;font-stretch:normal;font-size:40.00000381px;line-height:0.81999999;font-family:MrAlex-Bold;-inkscape-font-specification:'MrAlex-Bold, Normal';font-variant-ligatures:normal;font-variant-caps:normal;font-variant-numeric:normal;font-feature-settings:normal;text-align:center;letter-spacing:-0.53258169px;word-spacing:0px;writing-mode:lr-tb;text-anchor:middle;fill:currentColor;fill-opacity:1;stroke:none;stroke-width:1.26011026" d="m 72.569175,-40.965 h -5.083853 c -4.379158,0 -6.543572,2.220845 -6.543572,6.561588 v 27.2558246 c 0,4.391216 2.164414,6.5615874 6.543572,6.5615874 h 5.083853 c 4.328821,0 6.543575,-2.1703714 6.543575,-6.5615874 V -34.403412 c 0,-4.340743 -2.214754,-6.561588 -6.543575,-6.561588 z m -2.416086,5.804481 c 1.20804,0 2.013403,0.302843 2.466423,0.80758 0.453014,0.504737 0.704687,1.564687 0.704687,3.129373 v 20.896132 c 0,1.6151604 -0.251673,2.6751091 -0.704687,3.1798466 -0.45302,0.5047375 -1.258383,0.7571059 -2.466423,0.7571059 h 0.201342 -0.503352 c -1.157709,0 -1.963072,-0.2523684 -2.416087,-0.8075797 -0.503353,-0.5047375 -0.704695,-1.5646863 -0.704695,-3.1293728 v -20.896132 c 0,-1.514213 0.201342,-2.574162 0.704695,-3.129373 0.453015,-0.504737 1.258378,-0.80758 2.416087,-0.80758 z" inkscape:connector-curvature="0"></path>        <path id="path1714-8-9-9-8" style="font-style:normal;font-variant:normal;font-weight:normal;font-stretch:normal;font-size:23.40892601px;line-height:0.81999999;font-family:MrAlex-Bold;-inkscape-font-specification:'MrAlex-Bold, Normal';font-variant-ligatures:normal;font-variant-caps:normal;font-variant-numeric:normal;font-feature-settings:normal;text-align:center;letter-spacing:-0.53258169px;word-spacing:0px;writing-mode:lr-tb;text-anchor:middle;fill:currentColor;fill-opacity:1;stroke:none;stroke-width:2.15617275" d="m 114.75742,-1.847838 c 0,0.85804903 0.4038,1.261838 1.26185,1.261838 h 3.28079 c 0.80757,0 1.26184,-0.40378897 1.26184,-1.261838 v -37.855256 c 0,-0.80759 -0.45427,-1.26186 -1.26184,-1.26186 h -3.28079 c -0.85805,0 -1.26185,0.45427 -1.26185,1.26186 v 13.42599 c 0,0.65617 -0.15137,1.11043 -0.40379,1.36279 -0.30284,0.30286 -0.7571,0.40379 -1.36279,0.40379 h -3.07888 c -0.65617,0 -1.11043,-0.10091 -1.36279,-0.40379 -0.30286,-0.25236 -0.40379,-0.70662 -0.40379,-1.36279 v -13.42599 c 0,-0.80759 -0.45426,-1.26186 -1.26185,-1.26186 h -3.28079 c -0.85805,0 -1.26184,0.45427 -1.26184,1.26186 v 37.855256 c 0,0.85804903 0.40379,1.261838 1.26184,1.261838 h 3.28079 c 0.80759,0 1.26185,-0.40378897 1.26185,-1.261838 v -15.091635 c 0,-0.60569 0.10091,-1.059953 0.40379,-1.362787 0.25236,-0.252359 0.70662,-0.403787 1.36279,-0.403787 h 3.07888 c 0.60569,0 1.05995,0.151364 1.36279,0.403787 0.25238,0.302834 0.40379,0.757097 0.40379,1.362787 z" inkscape:connector-curvature="0"></path>        <path id="path1712-3-4-0-5" style="font-style:normal;font-variant:normal;font-weight:normal;font-stretch:normal;font-size:23.40892601px;line-height:0.81999999;font-family:MrAlex-Bold;-inkscape-font-specification:'MrAlex-Bold, Normal';font-variant-ligatures:normal;font-variant-caps:normal;font-variant-numeric:normal;font-feature-settings:normal;text-align:center;letter-spacing:-0.53258169px;word-spacing:0px;writing-mode:lr-tb;text-anchor:middle;fill:currentColor;fill-opacity:1;stroke:none;stroke-width:2.15617275" d="m 95.414195,-12.245394 c -0.85805,0 -1.26184,0.454261 -1.26184,1.261857 v 1.160883 c 0,0.858049 -0.10091,1.514215 -0.20181,2.018953 -0.15137,0.504738 -0.40379,0.807572 -0.7571,1.009476 -0.35331,0.201818 -0.65617,0.353311 -0.959,0.353311 -0.30284,0.05045 -0.7571,0.05045 -1.36279,0.05045 -1.26186,1e-6 -2.11991,-0.151362 -2.57417,-0.555214 -0.50474,-0.403786 -0.70662,-1.362787 -0.70662,-2.877003 v -21.905565 c 0,-1.514216 0.20182,-2.422742 0.70662,-2.826528 0.45426,-0.403787 1.31231,-0.605691 2.57417,-0.605691 1.41326,0 2.32179,0.252359 2.72557,0.656167 0.35332,0.403786 0.55522,1.362788 0.55522,2.776052 v 1.160882 c 0,0.858049 0.40379,1.261835 1.26183,1.261835 h 3.28079 c 0.80758,0 1.26184,-0.403786 1.26184,-1.261835 v -3.836004 c 0,-4.34072 -2.22084,-6.561579 -6.56158,-6.561579 h -5.04736 c -4.3912,0 -6.56158,2.220859 -6.56158,6.561579 v 27.255791 c 0,4.391219 2.17038,6.561577 6.56158,6.561577 h 5.04736 c 4.34074,0 6.56158,-2.170358 6.56158,-6.561577 v -3.835982 c 0,-0.807595 -0.45426,-1.261858 -1.26184,-1.261858 z" inkscape:connector-curvature="0"></path>      </g>    </g>  </g></svg>